<svg id="svg" version="1.1" xmlns="http://www.w3.org/2000/svg" xmlns:xlink="http://www.w3.org/1999/xlink" width="400" height="400" viewBox="0, 0, 400,400"><g id="svgg"><path id="path0" d="M168.200 0.800 C 167.565 1.502,166.968 1.600,163.347 1.600 C 159.385 1.600,159.192 1.640,158.563 2.600 C 157.934 3.560,157.743 3.600,153.763 3.600 C 149.801 3.600,149.590 3.643,148.973 4.584 C 148.388 5.478,148.027 5.579,145.064 5.684 C 142.042 5.791,141.791 5.866,141.674 6.684 C 141.558 7.503,141.306 7.577,138.274 7.684 C 135.244 7.791,134.991 7.866,134.874 8.683 C 134.760 9.487,134.492 9.576,131.874 9.683 C 129.259 9.789,128.989 9.879,128.875 10.681 C 128.765 11.454,128.471 11.576,126.475 11.681 C 124.560 11.781,124.137 11.943,123.805 12.700 C 123.588 13.195,123.104 13.600,122.729 13.600 C 122.354 13.600,121.936 13.780,121.800 14.000 C 121.664 14.220,121.067 14.400,120.472 14.400 C 119.874 14.400,118.911 14.846,118.313 15.400 C 117.668 15.999,116.760 16.400,116.050 16.400 C 114.356 16.400,113.600 16.777,113.600 17.621 C 113.600 18.214,113.233 18.380,111.700 18.478 C 110.093 18.581,109.781 18.736,109.675 19.479 C 109.569 20.221,109.256 20.377,107.675 20.479 C 106.079 20.582,105.781 20.734,105.672 21.500 C 105.567 22.237,105.292 22.400,104.146 22.400 C 102.435 22.400,101.067 23.077,101.341 23.790 C 101.482 24.159,100.996 24.400,99.726 24.590 C 98.408 24.788,97.854 25.074,97.708 25.631 C 97.597 26.054,97.162 26.400,96.741 26.400 C 96.320 26.400,95.871 26.670,95.745 27.000 C 95.618 27.330,95.260 27.600,94.949 27.600 C 94.637 27.600,94.178 28.050,93.927 28.600 C 93.579 29.363,93.169 29.600,92.192 29.600 C 91.294 29.600,90.688 29.898,90.161 30.600 C 89.747 31.151,89.004 31.600,88.505 31.600 C 87.806 31.600,87.600 31.828,87.600 32.600 C 87.600 33.468,87.423 33.600,86.256 33.600 C 85.289 33.600,84.701 33.881,84.161 34.600 C 83.747 35.151,83.004 35.600,82.505 35.600 C 81.806 35.600,81.600 35.828,81.600 36.600 C 81.600 37.476,81.427 37.600,80.200 37.600 C 79.430 37.600,78.778 37.780,78.750 38.000 C 78.723 38.220,78.678 38.625,78.650 38.900 C 78.623 39.175,78.199 39.457,77.708 39.527 C 77.217 39.597,76.471 40.092,76.050 40.627 C 75.629 41.162,75.086 41.600,74.842 41.600 C 74.599 41.600,74.400 41.759,74.400 41.953 C 74.400 42.148,74.027 42.404,73.570 42.524 C 73.114 42.643,72.646 43.104,72.530 43.548 C 72.413 43.992,71.932 44.410,71.459 44.478 C 70.921 44.554,70.552 44.937,70.472 45.500 C 70.392 46.063,70.067 46.400,69.605 46.400 C 68.348 46.400,67.600 46.853,67.600 47.615 C 67.600 48.067,67.258 48.393,66.700 48.472 C 66.122 48.554,65.754 48.922,65.672 49.500 C 65.582 50.137,65.274 50.400,64.619 50.400 C 64.019 50.400,63.617 50.692,63.476 51.230 C 63.357 51.686,62.886 52.157,62.430 52.276 C 61.973 52.396,61.600 52.712,61.600 52.979 C 61.600 53.246,61.150 53.706,60.600 54.000 C 60.050 54.294,59.600 54.744,59.600 55.000 C 59.600 55.256,59.150 55.706,58.600 56.000 C 58.050 56.294,57.600 56.775,57.600 57.068 C 57.600 57.360,57.360 57.600,57.068 57.600 C 56.775 57.600,56.294 58.050,56.000 58.600 C 55.706 59.150,55.225 59.600,54.932 59.600 C 54.640 59.600,54.400 59.793,54.400 60.029 C 54.400 60.582,53.382 61.600,52.829 61.600 C 52.593 61.600,52.400 61.793,52.400 62.029 C 52.400 62.582,51.382 63.600,50.829 63.600 C 50.593 63.600,50.400 64.037,50.400 64.572 C 50.400 65.276,50.151 65.580,49.500 65.672 C 48.922 65.754,48.554 66.122,48.472 66.700 C 48.390 67.278,48.068 67.600,47.572 67.600 C 47.147 67.600,46.778 67.780,46.750 68.000 C 46.723 68.220,46.655 68.580,46.600 68.800 C 46.545 69.020,46.477 69.457,46.450 69.772 C 46.423 70.087,45.995 70.402,45.500 70.472 C 44.937 70.552,44.554 70.921,44.478 71.459 C 44.410 71.932,43.992 72.413,43.548 72.530 C 43.104 72.646,42.643 73.114,42.524 73.570 C 42.404 74.027,42.148 74.400,41.953 74.400 C 41.759 74.400,41.600 74.599,41.600 74.842 C 41.600 75.086,41.150 75.639,40.600 76.071 C 40.050 76.504,39.600 77.185,39.600 77.586 C 39.600 78.028,39.208 78.412,38.600 78.564 C 37.773 78.772,37.600 79.056,37.600 80.208 C 37.600 81.426,37.475 81.600,36.600 81.600 C 35.802 81.600,35.600 81.801,35.600 82.591 C 35.600 83.206,35.221 83.830,34.600 84.237 C 33.859 84.722,33.600 85.243,33.600 86.246 C 33.600 87.424,33.470 87.600,32.600 87.600 C 31.846 87.600,31.600 87.810,31.600 88.454 C 31.600 88.924,31.150 89.725,30.600 90.235 C 29.895 90.888,29.600 91.581,29.600 92.581 C 29.600 93.733,29.450 94.000,28.800 94.000 C 28.360 94.000,28.000 94.152,28.000 94.339 C 28.000 94.525,27.640 95.093,27.200 95.600 C 26.760 96.107,26.400 96.744,26.400 97.015 C 26.400 97.285,26.040 97.601,25.600 97.716 C 25.147 97.834,24.778 98.288,24.750 98.763 C 24.723 99.223,24.655 99.780,24.600 100.000 C 24.545 100.220,24.478 100.664,24.450 100.987 C 24.421 101.322,24.155 101.481,23.831 101.356 C 23.079 101.068,22.400 102.392,22.400 104.146 C 22.400 105.292,22.237 105.567,21.500 105.672 C 20.734 105.781,20.582 106.079,20.479 107.675 C 20.377 109.256,20.221 109.569,19.479 109.675 C 18.736 109.781,18.581 110.093,18.478 111.700 C 18.380 113.233,18.214 113.600,17.621 113.600 C 16.761 113.600,16.400 114.358,16.400 116.163 C 16.400 117.030,16.068 117.772,15.400 118.400 C 14.801 118.963,14.400 119.783,14.400 120.446 C 14.400 121.055,14.220 121.664,14.000 121.800 C 13.780 121.936,13.600 122.354,13.600 122.729 C 13.600 123.104,13.195 123.588,12.700 123.805 C 11.943 124.137,11.781 124.560,11.681 126.475 C 11.576 128.471,11.454 128.765,10.681 128.875 C 9.879 128.989,9.789 129.259,9.683 131.874 C 9.576 134.492,9.487 134.760,8.683 134.874 C 7.866 134.991,7.791 135.244,7.684 138.274 C 7.577 141.306,7.503 141.558,6.684 141.674 C 5.866 141.791,5.791 142.043,5.685 145.043 C 5.578 148.048,5.497 148.318,4.585 148.734 C 3.626 149.171,3.600 149.298,3.600 153.545 C 3.600 157.757,3.565 157.931,2.600 158.563 C 1.641 159.192,1.600 159.386,1.600 163.321 C 1.600 166.965,1.511 167.488,0.800 168.000 C -0.068 168.626,-0.317 169.426,0.500 168.965 C 0.900 168.739,0.900 168.790,0.500 169.221 C -0.864 170.691,-0.077 233.143,1.289 231.778 C 1.407 231.660,1.534 233.471,1.572 235.804 C 1.637 239.933,2.675 243.560,3.324 241.933 C 3.441 241.640,3.551 243.421,3.568 245.891 C 3.599 250.204,3.639 250.407,4.584 251.027 C 5.477 251.612,5.580 251.974,5.684 254.919 C 5.793 257.963,5.859 258.180,6.749 258.389 C 7.643 258.599,7.700 258.793,7.749 261.806 C 7.796 264.776,7.862 265.009,8.682 265.126 C 9.477 265.239,9.576 265.515,9.682 267.926 C 9.789 270.353,9.883 270.612,10.700 270.728 C 11.499 270.841,11.601 271.088,11.613 272.928 C 11.624 274.840,12.248 276.400,13.000 276.400 C 13.669 276.400,14.375 277.871,14.387 279.291 C 14.397 280.431,14.635 280.935,15.400 281.437 C 16.147 281.926,16.400 282.441,16.400 283.472 C 16.400 285.116,17.011 286.400,17.792 286.400 C 18.181 286.400,18.394 286.989,18.478 288.300 C 18.581 289.907,18.736 290.219,19.479 290.325 C 20.221 290.431,20.377 290.744,20.479 292.325 C 20.582 293.921,20.734 294.219,21.500 294.328 C 22.229 294.431,22.400 294.711,22.400 295.795 C 22.400 297.715,22.761 298.400,23.774 298.400 C 24.525 298.400,24.635 298.577,24.492 299.558 C 24.359 300.464,24.627 301.039,25.729 302.207 C 26.503 303.028,27.046 303.936,26.935 304.225 C 26.824 304.515,27.108 304.986,27.567 305.272 C 28.025 305.558,28.400 305.997,28.400 306.247 C 28.400 306.497,28.670 306.926,29.000 307.200 C 29.330 307.474,29.600 308.032,29.600 308.441 C 29.600 308.901,29.982 309.281,30.600 309.436 C 31.421 309.642,31.600 309.930,31.600 311.043 C 31.600 311.790,31.793 312.400,32.029 312.400 C 32.718 312.400,33.516 313.393,33.664 314.435 C 33.754 315.078,34.100 315.443,34.700 315.528 C 35.434 315.632,35.600 315.909,35.600 317.028 C 35.600 318.215,35.731 318.400,36.575 318.400 C 37.375 318.400,37.572 318.626,37.675 319.660 C 37.748 320.398,38.124 321.101,38.583 321.360 C 39.831 322.061,40.400 322.695,40.400 323.381 C 40.400 323.732,40.850 324.191,41.400 324.400 C 41.987 324.623,42.400 325.097,42.400 325.547 C 42.400 325.969,42.670 326.418,43.000 326.545 C 43.330 326.671,43.600 327.035,43.600 327.353 C 43.600 327.671,44.200 328.549,44.934 329.305 C 45.667 330.060,46.388 330.993,46.536 331.377 C 46.683 331.761,47.148 332.166,47.568 332.276 C 47.988 332.386,48.441 332.909,48.574 333.438 C 48.727 334.049,49.104 334.400,49.608 334.400 C 50.058 334.400,50.400 334.669,50.400 335.023 C 50.400 335.855,54.120 339.600,54.947 339.600 C 55.367 339.600,55.600 339.938,55.600 340.548 C 55.600 341.277,55.807 341.485,56.494 341.448 C 57.185 341.411,57.434 341.666,57.594 342.577 C 57.707 343.225,57.935 343.720,58.100 343.677 C 59.059 343.430,59.600 343.694,59.600 344.410 C 59.600 344.906,59.988 345.367,60.600 345.600 C 61.150 345.809,61.600 346.259,61.600 346.600 C 61.600 346.941,62.050 347.391,62.600 347.600 C 63.150 347.809,63.600 348.165,63.600 348.390 C 63.600 348.992,65.111 350.400,65.757 350.400 C 66.063 350.400,66.426 350.850,66.564 351.400 C 66.702 351.950,67.065 352.400,67.370 352.400 C 67.675 352.400,68.859 353.300,70.000 354.400 C 71.141 355.500,72.388 356.400,72.770 356.400 C 73.152 356.400,73.706 356.850,74.000 357.400 C 74.324 358.006,74.885 358.400,75.424 358.400 C 76.039 358.400,76.391 358.709,76.564 359.400 C 76.702 359.950,77.095 360.400,77.437 360.400 C 77.779 360.400,78.705 361.120,79.495 362.000 C 80.285 362.880,81.262 363.600,81.666 363.600 C 82.070 363.600,82.400 363.767,82.400 363.971 C 82.400 364.678,83.661 365.600,84.629 365.600 C 85.315 365.600,85.600 365.822,85.600 366.357 C 85.600 367.144,86.335 367.600,87.604 367.600 C 88.010 367.600,88.696 368.050,89.129 368.600 C 89.561 369.150,90.290 369.600,90.748 369.600 C 91.207 369.600,91.876 370.050,92.237 370.600 C 92.597 371.150,93.216 371.600,93.612 371.600 C 94.008 371.600,94.826 372.123,95.430 372.763 C 96.034 373.403,96.769 373.833,97.064 373.720 C 97.359 373.607,97.600 373.714,97.600 373.957 C 97.600 374.201,98.037 374.400,98.572 374.400 C 99.276 374.400,99.580 374.649,99.672 375.300 C 99.778 376.046,100.087 376.221,101.475 376.322 C 102.849 376.422,103.173 376.601,103.275 377.322 C 103.380 378.062,103.694 378.219,105.275 378.321 C 106.856 378.423,107.169 378.579,107.275 379.321 C 107.383 380.080,107.686 380.216,109.500 380.321 C 111.428 380.432,111.600 380.522,111.600 381.421 C 111.600 382.342,111.731 382.400,113.824 382.400 C 115.215 382.400,115.954 382.551,115.798 382.803 C 115.381 383.478,116.666 384.400,118.026 384.400 C 118.880 384.400,119.618 384.734,120.235 385.400 C 120.825 386.037,121.596 386.400,122.357 386.400 C 123.015 386.400,123.664 386.580,123.800 386.800 C 123.936 387.020,124.398 387.200,124.826 387.200 C 125.255 387.200,125.980 387.631,126.439 388.158 C 127.042 388.852,127.870 389.192,129.436 389.387 C 130.938 389.575,131.600 389.835,131.600 390.239 C 131.600 391.081,133.303 391.600,136.069 391.600 C 138.042 391.600,138.444 391.709,138.258 392.194 C 137.912 393.096,139.258 393.600,142.011 393.600 C 144.099 393.600,144.505 393.717,144.674 394.363 C 144.937 395.369,145.902 395.588,150.100 395.595 C 152.905 395.599,153.600 395.716,153.600 396.186 C 153.600 397.206,155.040 397.600,158.774 397.600 C 160.925 397.600,162.400 397.763,162.400 398.000 C 162.400 398.220,162.591 398.400,162.824 398.400 C 163.057 398.400,163.131 398.175,162.989 397.900 C 162.847 397.625,163.078 397.826,163.502 398.347 C 164.705 399.823,167.726 399.956,200.400 399.971 C 231.206 399.985,234.879 399.825,236.696 398.396 C 237.535 397.736,238.320 397.600,241.280 397.600 C 244.963 397.600,246.400 397.203,246.400 396.186 C 246.400 395.715,247.107 395.600,250.018 395.600 C 253.344 395.600,253.717 395.519,254.636 394.600 C 255.492 393.744,256.001 393.600,258.169 393.600 C 260.702 393.600,261.998 392.967,261.411 392.018 C 261.244 391.747,261.918 391.600,263.326 391.600 C 266.426 391.600,268.076 391.195,268.289 390.381 C 268.422 389.872,269.061 389.610,270.646 389.412 C 272.342 389.200,272.963 388.923,273.465 388.157 C 273.819 387.617,274.195 387.262,274.302 387.368 C 274.408 387.475,274.757 387.300,275.076 386.981 C 275.396 386.661,276.360 386.400,277.219 386.400 C 278.444 386.400,278.923 386.184,279.437 385.400 C 279.951 384.616,280.429 384.400,281.656 384.400 C 282.956 384.400,283.284 384.231,283.600 383.400 C 283.942 382.500,284.201 382.400,286.190 382.400 C 288.281 382.400,288.400 382.346,288.400 381.400 C 288.400 380.467,288.533 380.400,290.400 380.400 C 292.267 380.400,292.400 380.333,292.400 379.400 C 292.400 378.467,292.533 378.400,294.400 378.400 C 296.254 378.400,296.400 378.329,296.400 377.423 C 296.400 376.560,296.598 376.432,298.100 376.323 C 299.413 376.228,299.890 375.995,300.195 375.300 C 300.463 374.689,300.934 374.400,301.661 374.400 C 302.343 374.400,303.254 373.892,304.173 373.000 C 304.966 372.230,305.951 371.600,306.361 371.600 C 306.772 371.600,307.403 371.150,307.763 370.600 C 308.124 370.050,308.793 369.600,309.252 369.600 C 309.710 369.600,310.420 369.174,310.830 368.652 C 311.240 368.131,312.138 367.592,312.825 367.455 C 313.609 367.298,314.151 366.907,314.283 366.403 C 314.417 365.891,314.829 365.600,315.418 365.600 C 316.340 365.600,317.600 364.666,317.600 363.983 C 317.600 363.785,318.185 363.472,318.900 363.288 C 319.785 363.060,320.240 362.680,320.325 362.098 C 320.398 361.601,320.662 361.326,320.959 361.440 C 321.239 361.547,322.185 360.939,323.062 360.088 C 323.938 359.237,324.975 358.418,325.366 358.268 C 325.756 358.119,326.170 357.637,326.285 357.198 C 326.419 356.682,326.831 356.400,327.447 356.400 C 328.197 356.400,328.400 356.187,328.400 355.400 C 328.400 354.600,328.600 354.400,329.400 354.400 C 330.200 354.400,330.400 354.200,330.400 353.400 C 330.400 352.524,330.573 352.400,331.800 352.400 C 332.570 352.400,333.223 352.220,333.250 352.000 C 333.278 351.780,333.322 351.383,333.350 351.118 C 333.378 350.853,333.850 350.531,334.400 350.402 C 335.032 350.254,335.447 349.842,335.528 349.284 C 335.598 348.798,335.936 348.400,336.279 348.400 C 337.092 348.400,348.400 337.092,348.400 336.279 C 348.400 335.936,348.798 335.598,349.284 335.528 C 349.842 335.447,350.254 335.032,350.402 334.400 C 350.531 333.850,350.853 333.378,351.118 333.350 C 351.383 333.322,351.780 333.278,352.000 333.250 C 352.220 333.223,352.400 332.570,352.400 331.800 C 352.400 330.573,352.524 330.400,353.400 330.400 C 354.200 330.400,354.400 330.200,354.400 329.400 C 354.400 328.600,354.600 328.400,355.400 328.400 C 356.200 328.400,356.400 328.200,356.400 327.400 C 356.400 326.850,356.593 326.400,356.829 326.400 C 357.362 326.400,358.400 325.390,358.400 324.871 C 358.400 324.659,358.670 324.382,359.000 324.255 C 359.330 324.129,359.600 323.659,359.600 323.213 C 359.600 322.667,359.863 322.400,360.400 322.400 C 361.162 322.400,361.267 322.257,361.360 321.100 C 361.382 320.825,361.748 320.505,362.174 320.388 C 362.600 320.271,363.082 319.678,363.245 319.069 C 363.408 318.460,364.004 317.597,364.571 317.152 C 365.146 316.699,365.600 315.934,365.600 315.418 C 365.600 314.829,365.891 314.417,366.403 314.283 C 366.907 314.151,367.298 313.609,367.455 312.825 C 367.592 312.138,368.131 311.240,368.652 310.830 C 369.174 310.420,369.600 309.710,369.600 309.252 C 369.600 308.793,370.050 308.124,370.600 307.763 C 371.150 307.403,371.600 306.769,371.600 306.355 C 371.600 305.941,372.238 304.926,373.019 304.101 C 373.823 303.250,374.364 302.316,374.268 301.944 C 374.065 301.163,374.327 300.751,375.400 300.159 C 375.960 299.851,376.237 299.221,376.323 298.059 C 376.431 296.600,376.564 296.400,377.423 296.400 C 378.329 296.400,378.400 296.254,378.400 294.400 C 378.400 292.533,378.467 292.400,379.400 292.400 C 380.333 292.400,380.400 292.267,380.400 290.400 C 380.400 288.533,380.467 288.400,381.400 288.400 C 382.346 288.400,382.400 288.281,382.400 286.190 C 382.400 284.201,382.500 283.942,383.400 283.600 C 384.200 283.296,384.400 282.944,384.400 281.839 C 384.400 280.842,384.678 280.239,385.400 279.671 C 386.180 279.058,386.400 278.519,386.400 277.226 C 386.400 275.567,386.630 275.104,388.276 273.439 C 388.830 272.879,389.252 271.801,389.423 270.511 C 389.616 269.059,389.894 268.416,390.386 268.288 C 391.176 268.081,391.600 266.426,391.600 263.550 C 391.600 262.477,391.767 261.600,391.971 261.600 C 393.026 261.600,393.600 260.250,393.600 257.771 C 393.600 255.734,393.727 255.200,394.210 255.200 C 395.144 255.200,395.600 253.471,395.600 249.932 C 395.600 246.956,395.677 246.655,396.626 245.908 C 397.620 245.126,397.647 244.984,397.526 241.145 C 397.419 237.796,397.490 237.224,397.988 237.416 C 398.311 237.540,398.446 237.512,398.287 237.354 C 398.128 237.195,398.264 236.771,398.590 236.412 C 399.798 235.077,399.984 230.190,399.972 200.200 C 399.958 168.593,399.826 165.047,398.624 164.168 C 398.208 163.864,398.001 163.375,398.137 163.019 C 398.268 162.679,398.201 162.400,397.987 162.400 C 397.765 162.400,397.600 160.795,397.600 158.629 C 397.600 155.083,397.540 154.811,396.600 154.071 C 395.671 153.340,395.600 153.040,395.600 149.816 C 395.600 146.230,395.197 144.800,394.186 144.800 C 393.728 144.800,393.600 144.198,393.600 142.049 C 393.600 139.300,392.998 137.983,392.018 138.589 C 391.744 138.758,391.600 137.952,391.600 136.250 C 391.600 133.336,391.098 131.600,390.255 131.600 C 389.875 131.600,389.578 130.852,389.345 129.311 C 389.095 127.648,388.781 126.909,388.200 126.611 C 387.760 126.385,387.340 125.840,387.267 125.400 C 387.193 124.960,386.968 124.429,386.767 124.220 C 386.565 124.011,386.400 123.156,386.400 122.320 C 386.400 121.236,386.228 120.800,385.800 120.800 C 385.470 120.800,385.200 120.530,385.200 120.200 C 385.200 119.870,385.020 119.600,384.800 119.600 C 384.580 119.600,384.400 118.957,384.400 118.171 C 384.400 116.774,383.683 115.600,382.829 115.600 C 382.581 115.600,382.400 114.756,382.400 113.600 C 382.400 111.733,382.333 111.600,381.400 111.600 C 380.467 111.600,380.400 111.467,380.400 109.600 C 380.400 107.745,380.329 107.600,379.421 107.600 C 378.522 107.600,378.432 107.428,378.321 105.500 C 378.212 103.608,378.113 103.409,377.322 103.491 C 376.542 103.573,376.429 103.369,376.322 101.691 C 376.218 100.079,376.067 99.781,375.300 99.672 C 374.649 99.580,374.400 99.276,374.400 98.572 C 374.400 98.037,374.220 97.600,374.000 97.600 C 373.780 97.600,373.600 97.358,373.600 97.062 C 373.600 96.766,373.150 96.001,372.600 95.362 C 372.051 94.723,371.601 93.910,371.600 93.556 C 371.600 93.202,371.150 92.574,370.600 92.161 C 370.049 91.747,369.600 91.004,369.600 90.505 C 369.600 90.007,369.407 89.600,369.171 89.600 C 368.476 89.600,367.600 88.519,367.600 87.661 C 367.600 86.337,367.156 85.600,366.357 85.600 C 365.840 85.600,365.598 85.314,365.594 84.700 C 365.586 83.616,365.218 83.022,364.357 82.705 C 364.003 82.575,363.602 81.909,363.465 81.225 C 363.328 80.541,362.911 79.864,362.539 79.721 C 361.555 79.344,360.400 78.094,360.400 77.408 C 360.400 77.082,359.950 76.702,359.400 76.564 C 358.707 76.390,358.400 76.039,358.400 75.421 C 358.400 74.857,358.032 74.361,357.400 74.073 C 356.837 73.816,356.400 73.280,356.400 72.846 C 356.400 72.422,355.500 71.141,354.400 70.000 C 353.300 68.859,352.400 67.675,352.400 67.370 C 352.400 67.065,351.950 66.702,351.400 66.564 C 350.850 66.426,350.400 66.032,350.400 65.688 C 350.400 64.922,347.004 61.600,346.221 61.600 C 345.910 61.600,345.598 61.195,345.528 60.700 C 345.446 60.122,345.078 59.754,344.500 59.672 C 343.857 59.581,343.600 59.275,343.600 58.599 C 343.600 57.865,343.354 57.625,342.500 57.527 C 341.617 57.425,341.425 57.222,341.525 56.500 C 341.627 55.768,341.459 55.600,340.625 55.600 C 339.977 55.600,339.600 55.378,339.600 54.995 C 339.600 54.215,335.776 50.400,334.995 50.400 C 334.668 50.400,334.400 50.043,334.400 49.608 C 334.400 49.104,334.049 48.727,333.438 48.574 C 332.909 48.441,332.386 47.988,332.276 47.568 C 332.166 47.148,331.761 46.683,331.377 46.536 C 330.993 46.388,330.060 45.667,329.305 44.934 C 328.549 44.200,327.671 43.600,327.353 43.600 C 327.035 43.600,326.671 43.330,326.545 43.000 C 326.418 42.670,325.896 42.400,325.385 42.400 C 324.727 42.400,324.418 42.138,324.328 41.504 C 324.256 41.000,323.863 40.544,323.428 40.461 C 322.593 40.302,322.048 39.807,321.360 38.583 C 321.101 38.124,320.398 37.748,319.660 37.675 C 318.626 37.572,318.400 37.375,318.400 36.575 C 318.400 35.731,318.215 35.600,317.028 35.600 C 315.909 35.600,315.632 35.434,315.528 34.700 C 315.443 34.100,315.078 33.754,314.435 33.664 C 313.393 33.516,312.400 32.718,312.400 32.029 C 312.400 31.793,311.790 31.600,311.043 31.600 C 309.930 31.600,309.642 31.421,309.436 30.600 C 309.281 29.982,308.901 29.600,308.441 29.600 C 308.032 29.600,307.474 29.330,307.200 29.000 C 306.926 28.670,306.497 28.400,306.247 28.400 C 305.997 28.400,305.563 28.033,305.284 27.585 C 305.004 27.137,304.556 26.806,304.287 26.848 C 303.489 26.976,302.400 26.354,302.400 25.771 C 302.400 24.978,300.885 24.297,299.554 24.492 C 298.578 24.635,298.400 24.525,298.400 23.774 C 298.400 22.761,297.715 22.400,295.795 22.400 C 294.711 22.400,294.431 22.229,294.328 21.500 C 294.219 20.734,293.921 20.582,292.325 20.479 C 290.744 20.377,290.431 20.221,290.325 19.479 C 290.219 18.736,289.907 18.581,288.300 18.478 C 286.989 18.394,286.400 18.181,286.400 17.792 C 286.400 17.054,285.141 16.400,283.721 16.400 C 282.981 16.400,282.330 16.054,281.839 15.400 C 281.255 14.623,280.722 14.397,279.444 14.387 C 277.728 14.374,276.902 13.922,276.158 12.591 C 275.808 11.963,275.216 11.776,273.284 11.682 C 271.124 11.576,270.837 11.464,270.725 10.682 C 270.612 9.887,270.335 9.788,267.926 9.682 C 265.515 9.576,265.239 9.477,265.126 8.682 C 265.010 7.868,264.754 7.791,261.789 7.685 C 258.914 7.583,258.536 7.478,258.189 6.685 C 257.843 5.897,257.426 5.778,254.400 5.600 C 251.355 5.421,250.959 5.306,250.605 4.500 C 250.234 3.655,249.971 3.600,246.305 3.600 C 244.157 3.600,242.399 3.465,242.397 3.300 C 242.389 2.289,239.772 1.600,235.939 1.600 C 232.172 1.600,230.265 1.068,231.086 0.248 C 231.222 0.111,217.291 0.000,200.129 0.000 C 169.432 0.000,168.912 0.013,168.200 0.800 M127.504 152.636 C 129.102 152.940,131.120 153.551,131.988 153.994 C 132.857 154.437,133.785 154.800,134.049 154.800 C 134.831 154.800,138.464 157.208,140.338 158.968 C 144.875 163.230,146.875 169.407,145.559 175.094 C 144.058 181.581,137.929 188.770,130.424 192.846 C 129.458 193.371,127.842 194.285,126.833 194.878 C 125.825 195.472,124.370 196.241,123.600 196.589 C 122.830 196.936,121.857 197.415,121.438 197.652 C 119.472 198.767,111.465 201.845,107.000 203.203 C 105.680 203.605,103.790 204.212,102.800 204.553 C 101.810 204.894,99.200 205.651,97.000 206.236 C 89.382 208.260,89.952 207.772,91.150 211.255 C 93.805 218.971,99.737 224.313,107.580 226.051 C 113.630 227.392,123.513 226.764,127.800 224.766 C 128.680 224.356,130.210 223.660,131.200 223.220 C 132.190 222.780,133.353 222.190,133.784 221.910 C 134.215 221.629,135.475 220.818,136.584 220.107 C 139.632 218.152,141.210 217.063,141.954 216.400 C 142.324 216.070,143.340 215.275,144.213 214.633 C 153.008 208.163,153.899 206.940,154.635 200.335 C 154.790 198.941,155.260 196.810,155.679 195.600 C 156.098 194.390,156.670 192.500,156.951 191.400 C 157.231 190.300,157.762 188.824,158.130 188.120 C 158.499 187.416,158.800 186.636,158.800 186.387 C 158.800 185.924,160.614 181.472,161.973 178.600 C 164.088 174.130,168.620 165.116,169.816 163.000 C 170.562 161.680,171.528 159.845,171.962 158.923 C 173.170 156.358,176.281 155.283,184.400 154.626 C 186.050 154.492,188.390 154.109,189.600 153.774 C 190.810 153.439,193.240 153.011,195.000 152.823 C 196.760 152.635,199.525 152.243,201.144 151.952 C 205.614 151.147,206.811 153.191,204.159 157.099 C 203.631 157.876,203.200 158.713,203.200 158.959 C 203.200 159.205,202.750 160.252,202.200 161.285 C 201.650 162.318,201.200 163.370,201.200 163.624 C 201.200 163.877,200.780 164.920,200.268 165.942 C 199.755 166.964,199.204 168.340,199.044 169.000 C 198.884 169.660,198.415 170.920,198.003 171.800 C 197.590 172.680,196.903 174.390,196.476 175.600 C 196.049 176.810,195.468 178.358,195.185 179.041 C 194.025 181.833,195.033 181.848,197.903 179.080 C 199.386 177.650,201.320 175.871,202.200 175.128 C 203.080 174.385,204.520 173.120,205.400 172.316 C 206.280 171.512,207.665 170.347,208.478 169.727 C 214.816 164.893,219.725 161.275,220.857 160.605 C 221.596 160.167,223.010 159.308,224.000 158.695 C 233.585 152.762,243.554 150.284,249.852 152.269 C 257.934 154.817,262.749 165.549,260.200 175.335 C 259.110 179.520,259.408 179.464,265.711 174.300 C 273.587 167.848,276.081 165.851,277.179 165.119 C 277.740 164.744,278.920 163.895,279.800 163.233 C 280.680 162.571,282.030 161.659,282.800 161.207 C 283.570 160.756,285.010 159.768,286.000 159.013 C 287.625 157.774,289.729 156.650,295.800 153.781 C 306.153 148.887,318.409 152.403,321.848 161.254 C 322.221 162.214,322.721 163.250,322.959 163.556 C 323.574 164.347,323.766 172.182,323.245 175.232 C 322.035 182.322,319.746 189.858,316.210 198.400 C 314.205 203.242,313.493 205.095,312.828 207.200 C 312.446 208.410,311.933 209.760,311.688 210.200 C 310.026 213.185,308.272 222.960,309.040 224.959 C 310.082 227.675,315.162 227.466,319.593 224.525 C 320.359 224.016,321.122 223.600,321.287 223.600 C 322.095 223.600,332.015 215.682,337.950 210.300 C 342.924 205.789,344.000 206.357,344.000 213.493 C 344.000 219.739,343.701 220.484,340.144 223.127 C 338.635 224.247,337.155 225.378,336.855 225.640 C 336.556 225.901,335.476 226.751,334.455 227.529 C 327.153 233.093,327.595 232.784,320.000 237.635 C 315.254 240.666,315.360 240.606,311.800 242.317 C 291.279 252.179,274.000 245.448,274.000 227.590 C 274.000 224.113,275.456 214.252,276.214 212.600 C 276.516 211.940,277.047 210.152,277.393 208.628 C 277.739 207.103,278.180 205.663,278.373 205.428 C 278.566 205.192,279.036 203.920,279.418 202.600 C 279.799 201.280,280.424 199.480,280.806 198.600 C 281.530 196.934,282.272 194.906,283.864 190.237 C 284.383 188.717,284.965 187.277,285.157 187.037 C 285.349 186.797,285.706 185.652,285.950 184.494 C 286.194 183.336,286.665 181.739,286.997 180.946 C 291.670 169.762,276.871 175.685,261.179 191.279 C 254.947 197.472,254.016 198.996,252.575 205.375 C 252.230 206.902,251.785 208.454,251.586 208.825 C 251.388 209.196,250.884 211.008,250.466 212.850 C 250.049 214.693,249.429 217.010,249.089 218.000 C 248.748 218.990,248.011 221.330,247.450 223.200 C 246.888 225.070,246.050 227.770,245.587 229.200 C 245.123 230.630,244.510 232.803,244.224 234.030 C 243.938 235.256,243.427 236.876,243.088 237.630 C 242.749 238.383,242.307 239.540,242.107 240.200 C 241.825 241.127,241.384 241.507,240.171 241.869 C 237.889 242.550,229.824 243.933,226.800 244.162 C 225.370 244.270,223.120 244.631,221.800 244.964 C 217.811 245.971,210.129 246.829,208.988 246.395 C 207.508 245.833,207.474 245.349,208.623 241.184 C 209.197 239.103,209.936 236.320,210.266 235.000 C 210.596 233.680,211.301 231.312,211.833 229.737 C 212.365 228.162,212.806 226.542,212.813 226.137 C 212.820 225.732,213.188 224.410,213.630 223.200 C 214.071 221.990,214.711 219.740,215.050 218.200 C 215.389 216.660,215.909 214.860,216.206 214.200 C 216.503 213.540,216.958 211.920,217.218 210.600 C 217.478 209.280,217.911 207.750,218.180 207.200 C 218.449 206.650,218.891 205.120,219.162 203.800 C 219.434 202.480,220.005 200.360,220.431 199.089 C 220.857 197.818,221.382 195.658,221.596 194.289 C 221.811 192.920,222.255 190.832,222.584 189.649 C 222.912 188.467,223.455 185.767,223.790 183.649 C 224.125 181.532,224.554 179.039,224.744 178.110 C 225.909 172.402,219.955 174.209,208.408 183.066 C 196.034 192.558,189.130 200.441,188.008 206.360 C 187.793 207.491,187.353 209.358,187.028 210.508 C 186.704 211.659,186.161 214.940,185.821 217.800 C 185.481 220.660,185.012 223.630,184.779 224.400 C 184.546 225.170,184.227 228.903,184.071 232.696 C 183.722 241.162,183.843 240.968,178.366 241.856 C 176.295 242.191,173.700 242.732,172.600 243.057 C 171.500 243.381,169.139 243.816,167.353 244.022 C 165.567 244.228,163.497 244.647,162.753 244.953 C 160.854 245.734,155.762 246.527,154.569 246.228 C 153.036 245.843,152.874 244.840,152.566 233.843 C 152.245 222.346,152.394 222.736,149.302 225.300 C 148.175 226.235,146.603 227.450,145.810 228.000 C 145.016 228.550,143.752 229.450,143.000 230.000 C 139.639 232.458,131.769 237.600,131.367 237.600 C 131.246 237.600,129.517 238.499,127.525 239.599 C 125.532 240.698,123.159 241.814,122.251 242.080 C 121.343 242.346,120.060 242.886,119.400 243.280 C 118.740 243.674,117.818 243.998,117.351 243.999 C 116.884 243.999,115.141 244.444,113.477 244.987 C 101.440 248.917,81.645 246.644,72.600 240.294 C 71.720 239.676,70.370 238.753,69.600 238.241 C 68.059 237.218,63.299 232.075,62.485 230.553 C 62.201 230.024,61.526 228.938,60.985 228.140 C 60.443 227.341,60.000 226.396,60.000 226.038 C 60.000 225.681,59.629 224.695,59.175 223.848 C 57.116 220.008,56.809 204.958,58.684 199.800 C 59.004 198.920,59.515 197.210,59.819 196.000 C 62.427 185.629,73.795 171.123,86.089 162.478 C 90.813 159.157,97.785 155.558,101.037 154.763 C 102.117 154.499,103.484 154.040,104.076 153.743 C 105.210 153.175,108.988 152.508,114.000 151.991 C 117.673 151.612,123.612 151.895,127.504 152.636 M108.800 163.055 C 108.250 163.160,107.233 163.506,106.540 163.823 C 105.846 164.140,105.126 164.402,104.940 164.405 C 104.540 164.411,102.076 166.420,100.039 168.400 C 98.081 170.305,93.600 176.356,93.600 177.096 C 93.600 177.270,93.241 178.082,92.802 178.901 C 92.363 179.720,91.536 182.147,90.965 184.293 C 90.394 186.439,89.828 188.354,89.708 188.549 C 89.392 189.060,88.877 196.897,89.117 197.544 C 89.386 198.267,92.776 197.833,94.760 196.820 C 95.555 196.415,96.951 195.883,97.863 195.637 C 100.340 194.970,107.349 191.519,109.309 190.000 C 110.947 188.732,116.000 183.430,116.000 182.981 C 116.000 182.721,116.368 182.040,116.818 181.468 C 118.590 179.216,119.387 170.901,118.208 166.973 C 117.302 163.953,113.143 162.222,108.800 163.055 " stroke="none" fill="#3394dc" fill-rule="evenodd"></path><path id="path1" d="M241.600 153.606 C 238.997 153.922,233.256 155.733,231.000 156.950 C 230.340 157.306,229.170 157.865,228.400 158.193 C 225.068 159.612,210.804 169.465,208.400 172.008 C 208.290 172.125,206.220 173.911,203.800 175.978 C 201.380 178.044,198.590 180.560,197.600 181.567 C 192.919 186.329,190.302 185.807,192.750 180.600 C 193.467 179.074,194.163 177.177,195.464 173.200 C 195.788 172.210,196.491 170.451,197.026 169.291 C 197.562 168.131,198.000 166.943,198.000 166.651 C 198.000 166.358,198.450 165.273,199.000 164.238 C 199.550 163.204,200.000 162.142,200.001 161.879 C 200.002 161.615,200.794 159.822,201.763 157.894 C 204.088 153.264,203.979 153.195,196.488 154.556 C 193.469 155.104,189.830 155.667,188.400 155.806 C 186.970 155.945,184.720 156.317,183.400 156.632 C 182.080 156.948,179.688 157.369,178.084 157.568 C 176.480 157.767,174.913 158.140,174.602 158.398 C 173.897 158.984,169.309 167.431,166.237 173.800 C 162.588 181.367,162.437 181.698,161.761 183.600 C 161.409 184.590,160.582 186.840,159.924 188.600 C 159.266 190.360,158.460 192.880,158.133 194.200 C 157.805 195.520,157.204 197.680,156.795 199.000 C 156.387 200.320,155.930 202.480,155.781 203.800 C 155.320 207.881,154.198 209.252,146.781 214.800 C 146.045 215.350,144.894 216.257,144.222 216.816 C 143.550 217.374,142.611 218.094,142.135 218.416 C 141.660 218.737,140.191 219.755,138.872 220.678 C 125.907 229.748,112.723 231.408,100.887 225.462 C 96.887 223.453,91.804 217.945,90.348 214.043 C 90.134 213.469,89.596 212.243,89.153 211.319 C 87.322 207.499,88.994 206.058,97.400 204.207 C 99.160 203.820,100.780 203.368,101.000 203.204 C 101.220 203.039,102.390 202.681,103.600 202.407 C 104.810 202.134,106.182 201.671,106.649 201.379 C 107.116 201.087,108.635 200.554,110.025 200.194 C 111.415 199.833,113.231 199.192,114.060 198.769 C 114.890 198.346,115.767 198.000,116.009 198.000 C 116.436 198.000,120.974 195.997,122.600 195.090 C 123.040 194.845,124.300 194.174,125.400 193.600 C 138.276 186.876,144.000 180.090,144.000 171.551 C 144.000 160.706,134.573 153.960,119.000 153.662 C 113.296 153.553,103.869 155.178,100.688 156.820 C 99.856 157.249,98.956 157.603,98.688 157.607 C 98.143 157.614,92.860 160.195,91.000 161.363 C 81.027 167.621,73.858 174.497,67.776 183.636 C 66.600 185.402,65.515 187.242,65.363 187.724 C 65.211 188.206,64.662 189.227,64.144 189.993 C 63.625 190.759,63.200 191.636,63.200 191.943 C 63.200 192.249,62.766 193.512,62.236 194.750 C 57.956 204.739,58.183 219.283,62.748 227.605 C 65.585 232.778,73.732 240.172,77.569 241.057 C 78.136 241.188,79.050 241.579,79.600 241.927 C 88.181 247.347,113.158 245.334,126.600 238.139 C 130.695 235.947,133.767 234.182,135.129 233.240 C 135.718 232.833,137.460 231.669,139.000 230.655 C 143.876 227.443,146.527 225.525,149.123 223.332 C 151.810 221.061,152.025 220.971,153.226 221.614 C 153.900 221.975,154.000 222.478,154.002 225.514 C 154.008 237.582,155.018 244.265,156.812 244.121 C 158.852 243.957,165.502 242.723,168.200 242.007 C 169.740 241.599,171.965 241.151,173.145 241.013 C 175.998 240.677,179.999 239.655,181.036 238.996 C 181.786 238.520,181.921 237.833,182.349 232.333 C 183.120 222.398,183.529 218.819,184.388 214.460 C 184.835 212.194,185.208 209.949,185.218 209.471 C 185.227 208.992,185.509 207.880,185.843 207.000 C 186.178 206.120,186.682 204.590,186.965 203.600 C 189.569 194.465,218.863 170.374,224.246 172.941 C 226.382 173.960,226.953 175.204,226.670 178.228 C 226.276 182.455,223.299 196.133,221.367 202.600 C 220.841 204.360,220.224 206.671,219.995 207.736 C 219.767 208.802,219.343 210.242,219.053 210.936 C 218.763 211.631,218.400 212.920,218.248 213.800 C 218.095 214.680,217.535 216.750,217.004 218.400 C 215.992 221.546,215.136 224.585,214.130 228.600 C 213.799 229.920,213.174 232.005,212.740 233.234 C 212.307 234.462,211.709 236.532,211.411 237.834 C 211.113 239.135,210.559 241.066,210.179 242.125 C 209.188 244.887,209.580 245.129,213.702 244.301 C 215.516 243.936,218.800 243.443,221.000 243.205 C 223.200 242.966,226.800 242.427,229.000 242.007 C 231.200 241.587,234.415 241.072,236.145 240.862 C 240.382 240.350,241.051 239.415,243.062 231.200 C 243.412 229.770,243.953 228.101,244.265 227.490 C 244.576 226.880,245.021 225.353,245.253 224.098 C 245.485 222.843,245.929 221.325,246.239 220.724 C 246.550 220.123,247.083 218.410,247.423 216.916 C 247.763 215.422,248.392 213.248,248.821 212.085 C 249.249 210.922,249.600 209.613,249.600 209.177 C 249.600 208.742,250.022 207.173,250.539 205.692 C 251.055 204.212,251.610 202.280,251.773 201.400 C 252.237 198.895,254.628 195.374,258.574 191.388 C 276.948 172.828,291.475 167.729,288.991 180.712 C 288.675 182.364,288.156 184.113,287.837 184.599 C 287.519 185.085,287.131 186.184,286.975 187.042 C 286.819 187.899,286.375 189.231,285.988 190.002 C 285.600 190.773,285.070 192.213,284.809 193.202 C 284.548 194.191,284.105 195.360,283.824 195.800 C 283.544 196.240,283.001 197.680,282.619 199.000 C 282.237 200.320,281.778 201.580,281.600 201.800 C 281.422 202.020,280.974 203.280,280.606 204.600 C 280.238 205.920,279.683 207.564,279.372 208.252 C 278.829 209.457,278.600 210.385,276.765 218.800 C 271.189 244.375,292.430 253.460,318.400 236.609 C 327.314 230.825,327.081 230.990,338.457 222.328 C 342.122 219.538,342.000 219.811,342.000 214.391 C 342.000 209.175,341.812 208.988,339.101 211.500 C 335.485 214.849,330.894 218.711,327.687 221.101 C 325.989 222.365,324.281 223.688,323.889 224.040 C 319.374 228.103,311.397 229.888,308.815 227.414 C 306.491 225.188,306.426 218.615,308.675 213.302 C 309.024 212.476,309.539 210.990,309.819 210.000 C 310.376 208.025,311.569 204.955,313.046 201.691 C 313.571 200.531,314.000 199.354,314.000 199.076 C 314.000 198.797,314.366 197.856,314.813 196.985 C 315.261 196.113,315.912 194.410,316.262 193.200 C 316.611 191.990,317.064 190.791,317.269 190.535 C 318.011 189.606,320.459 180.032,321.166 175.293 C 323.386 160.418,316.321 151.985,303.032 153.646 C 301.290 153.864,299.094 154.393,298.154 154.821 C 297.213 155.249,296.340 155.600,296.214 155.600 C 295.729 155.600,289.320 158.847,287.733 159.897 C 283.068 162.983,279.147 165.797,272.837 170.587 C 272.267 171.020,270.168 172.730,268.173 174.387 C 266.178 176.044,263.957 177.844,263.238 178.387 C 262.518 178.930,261.486 179.785,260.944 180.287 C 258.375 182.668,257.791 181.280,258.337 174.092 C 259.494 158.851,253.979 152.101,241.600 153.606 M117.159 162.768 C 124.879 168.882,120.181 186.038,109.100 192.200 C 108.309 192.640,106.284 193.765,104.600 194.700 C 102.916 195.635,101.358 196.400,101.136 196.400 C 100.915 196.400,99.534 196.919,98.067 197.552 C 96.600 198.186,94.680 198.824,93.800 198.969 C 92.920 199.114,91.642 199.522,90.960 199.875 C 86.754 202.054,86.112 198.557,88.451 186.200 C 90.393 175.942,99.975 163.453,107.358 161.556 C 110.497 160.750,115.372 161.352,117.159 162.768 " stroke="none" fill="#f5f9fb" fill-rule="evenodd"></path><path id="path2" d="M242.600 152.255 C 239.241 152.675,236.432 153.372,233.725 154.456 C 230.704 155.665,227.850 157.196,228.611 157.199 C 228.837 157.199,229.383 156.947,229.823 156.639 C 230.563 156.121,235.863 153.998,237.863 153.419 C 250.884 149.650,260.093 157.219,259.497 171.200 C 259.374 174.098,259.422 175.208,259.628 174.200 C 262.245 161.359,254.068 150.820,242.600 152.255 M303.600 152.374 C 302.191 152.604,302.711 152.680,306.000 152.723 C 312.968 152.814,316.494 154.665,320.161 160.156 C 320.732 161.012,321.200 161.536,321.200 161.321 C 321.200 160.305,317.725 156.243,315.652 154.835 C 312.355 152.596,307.863 151.679,303.600 152.374 M117.300 152.691 C 118.125 152.778,119.475 152.778,120.300 152.691 C 121.125 152.605,120.450 152.534,118.800 152.534 C 117.150 152.534,116.475 152.605,117.300 152.691 M202.200 152.695 C 204.309 153.004,205.131 154.496,203.800 155.600 C 203.470 155.874,203.204 156.301,203.209 156.549 C 203.225 157.356,204.782 155.025,204.791 154.180 C 204.804 152.965,204.015 152.393,202.420 152.460 C 201.064 152.517,201.054 152.528,202.200 152.695 M111.105 153.083 C 111.602 153.179,112.322 153.175,112.705 153.075 C 113.087 152.975,112.680 152.896,111.800 152.901 C 110.920 152.905,110.607 152.987,111.105 153.083 M126.438 153.362 C 128.109 153.661,129.879 154.121,130.372 154.385 C 130.865 154.649,131.351 154.783,131.451 154.682 C 131.850 154.284,128.369 153.240,125.958 153.036 L 123.400 152.819 126.438 153.362 M198.900 153.076 C 199.285 153.176,199.915 153.176,200.300 153.076 C 200.685 152.975,200.370 152.893,199.600 152.893 C 198.830 152.893,198.515 152.975,198.900 153.076 M298.777 153.179 C 297.281 153.633,295.897 154.431,296.156 154.689 C 296.280 154.813,296.661 154.681,297.004 154.397 C 297.347 154.112,298.566 153.652,299.714 153.374 C 300.861 153.096,301.350 152.868,300.800 152.868 C 300.250 152.869,299.339 153.009,298.777 153.179 M105.894 153.885 C 104.845 154.235,104.068 154.602,104.168 154.701 C 104.267 154.800,105.215 154.603,106.274 154.263 C 107.333 153.922,108.650 153.568,109.200 153.476 C 110.074 153.330,110.049 153.305,109.000 153.279 C 108.340 153.263,106.942 153.535,105.894 153.885 M192.837 153.820 C 187.578 154.960,189.423 154.955,195.400 153.812 C 197.245 153.459,197.722 153.274,196.800 153.270 C 196.030 153.267,194.246 153.514,192.837 153.820 M99.093 156.074 C 97.385 156.759,96.062 157.396,96.155 157.488 C 96.247 157.581,97.535 157.172,99.015 156.579 C 100.496 155.987,102.178 155.360,102.754 155.185 C 103.556 154.942,103.614 154.864,103.000 154.848 C 102.560 154.837,100.802 155.389,99.093 156.074 M132.993 155.262 C 139.854 157.946,144.343 163.908,144.843 170.999 L 145.125 175.000 145.052 170.982 C 144.925 164.047,138.991 156.191,133.000 155.028 L 131.800 154.795 132.993 155.262 M186.700 155.082 C 187.195 155.178,188.005 155.178,188.500 155.082 C 188.995 154.987,188.590 154.909,187.600 154.909 C 186.610 154.909,186.205 154.987,186.700 155.082 M178.822 156.041 C 174.213 156.979,173.619 157.349,172.001 160.284 C 171.300 161.558,170.178 163.590,169.509 164.800 C 167.500 168.432,164.164 175.193,162.698 178.600 C 161.942 180.360,160.845 182.903,160.261 184.250 C 159.678 185.598,159.204 186.948,159.209 187.250 C 159.218 187.759,160.520 184.905,161.787 181.600 C 163.034 178.345,167.255 169.618,169.912 164.800 C 170.579 163.590,171.696 161.564,172.394 160.297 C 173.827 157.698,174.379 157.304,177.319 156.784 C 183.262 155.733,185.300 155.272,184.000 155.272 C 183.230 155.272,180.900 155.618,178.822 156.041 M292.700 155.829 C 291.149 156.670,291.325 156.961,292.900 156.159 C 294.408 155.393,294.675 155.194,294.167 155.216 C 293.965 155.225,293.305 155.501,292.700 155.829 M289.412 157.475 C 288.759 157.828,287.370 158.718,286.325 159.453 C 285.280 160.188,283.294 161.565,281.912 162.514 C 277.165 165.774,272.368 169.474,265.441 175.220 C 259.266 180.341,259.301 180.327,259.094 177.700 L 258.944 175.800 258.872 177.713 C 258.773 180.334,259.517 180.531,261.916 178.517 C 267.109 174.160,276.582 166.690,279.592 164.579 C 281.458 163.271,283.528 161.808,284.192 161.329 C 284.857 160.850,286.744 159.635,288.387 158.629 C 291.238 156.883,291.917 156.119,289.412 157.475 M201.693 159.981 C 200.982 161.481,200.400 162.844,200.400 163.010 C 200.400 163.176,200.045 164.052,199.612 164.956 C 198.160 167.984,195.959 174.078,196.149 174.541 C 196.277 174.853,196.347 174.837,196.368 174.491 C 196.407 173.868,198.969 167.205,200.028 164.974 C 200.453 164.079,200.800 163.213,200.800 163.049 C 200.800 162.884,201.362 161.583,202.050 160.158 C 202.737 158.733,203.229 157.496,203.143 157.410 C 203.057 157.324,202.405 158.481,201.693 159.981 M225.693 158.310 C 219.594 162.204,216.216 164.498,213.484 166.601 C 211.770 167.921,209.764 169.462,209.026 170.026 C 206.959 171.608,201.754 176.230,198.115 179.718 C 193.996 183.666,193.030 183.345,194.752 178.600 C 195.151 177.500,195.608 176.240,195.767 175.800 C 195.954 175.280,195.838 175.350,195.436 176.000 C 194.817 176.997,193.200 181.876,193.200 182.743 C 193.200 184.023,195.148 182.910,198.528 179.700 C 202.696 175.741,209.828 169.742,214.632 166.154 C 217.618 163.923,220.336 162.115,226.000 158.590 C 227.210 157.837,228.020 157.220,227.800 157.220 C 227.580 157.220,226.632 157.710,225.693 158.310 M92.400 159.216 C 86.125 162.919,85.875 163.093,81.333 166.906 C 77.696 169.960,73.740 173.987,71.024 177.400 L 69.114 179.800 71.028 177.600 C 77.577 170.075,90.727 159.249,93.390 159.191 C 93.615 159.186,94.250 158.830,94.800 158.400 C 96.396 157.152,95.222 157.551,92.400 159.216 M111.401 162.370 C 115.182 162.612,116.789 163.307,118.193 165.311 C 118.527 165.788,118.800 165.992,118.800 165.765 C 118.800 163.735,115.231 161.989,111.244 162.070 L 107.800 162.140 111.401 162.370 M321.477 162.800 C 322.441 166.382,322.816 167.405,322.649 165.998 C 322.557 165.226,322.195 163.966,321.845 163.198 C 321.494 162.428,321.329 162.249,321.477 162.800 M104.511 163.664 C 101.073 165.598,92.458 174.991,93.326 175.860 C 93.417 175.951,93.810 175.524,94.199 174.912 C 97.409 169.862,101.385 165.846,105.182 163.820 C 106.622 163.052,107.530 162.438,107.200 162.456 C 106.870 162.474,105.660 163.018,104.511 163.664 M119.022 167.000 C 121.409 175.178,117.758 184.449,109.856 190.273 C 107.467 192.033,107.045 192.722,109.338 191.117 C 117.652 185.301,122.447 174.024,119.389 167.484 C 119.058 166.778,118.893 166.560,119.022 167.000 M322.920 169.600 C 322.920 170.810,322.995 171.305,323.087 170.700 C 323.178 170.095,323.178 169.105,323.087 168.500 C 322.995 167.895,322.920 168.390,322.920 169.600 M322.042 175.100 C 321.245 179.696,321.132 181.324,321.800 178.600 C 322.440 175.988,323.012 172.000,322.746 172.000 C 322.655 172.000,322.338 173.395,322.042 175.100 M221.000 174.224 C 220.340 174.547,220.160 174.707,220.600 174.578 C 225.289 173.206,226.388 175.062,224.803 181.675 C 224.364 183.504,224.025 185.450,224.049 186.000 C 224.084 186.799,224.128 186.839,224.266 186.200 C 224.361 185.760,224.790 183.848,225.220 181.950 C 226.782 175.044,225.208 172.162,221.000 174.224 M282.000 174.775 C 273.106 177.503,250.916 198.065,252.530 202.084 C 252.680 202.459,252.745 202.438,252.768 202.007 C 253.115 195.485,275.695 175.924,284.147 174.821 C 286.367 174.532,286.429 174.500,284.800 174.485 C 283.810 174.476,282.550 174.607,282.000 174.775 M287.315 175.300 C 287.682 175.575,288.164 176.520,288.385 177.400 L 288.788 179.000 288.613 177.464 C 288.432 175.872,287.813 174.800,287.075 174.800 C 286.839 174.800,286.948 175.025,287.315 175.300 M144.427 175.800 C 144.027 180.664,136.197 188.634,126.719 193.825 C 124.364 195.115,122.506 196.239,122.590 196.324 C 123.060 196.793,133.447 190.407,136.858 187.552 C 140.387 184.597,145.124 177.429,144.679 175.716 C 144.516 175.089,144.485 175.099,144.427 175.800 M214.251 177.776 C 210.039 180.573,204.177 185.086,200.999 187.979 C 199.899 188.980,197.761 190.880,196.247 192.200 C 194.734 193.520,192.675 195.680,191.673 197.000 C 190.128 199.033,190.396 198.824,193.425 195.632 C 198.754 190.016,208.195 182.137,214.400 178.128 C 217.430 176.171,218.694 175.243,218.366 175.218 C 218.237 175.208,216.385 176.359,214.251 177.776 M92.031 178.309 C 90.792 180.855,88.787 187.445,88.854 188.749 L 88.909 189.800 89.082 188.800 C 89.448 186.677,91.563 180.041,92.389 178.422 C 92.866 177.487,93.187 176.654,93.103 176.570 C 93.019 176.486,92.537 177.269,92.031 178.309 M287.033 183.118 C 286.391 185.253,285.549 187.726,285.162 188.614 C 284.775 189.502,284.348 190.762,284.213 191.414 C 283.844 193.196,285.443 189.221,287.033 184.400 C 287.795 182.090,288.369 179.983,288.309 179.718 C 288.249 179.453,287.675 180.983,287.033 183.118 M68.093 181.100 C 66.920 182.793,66.634 183.514,67.577 182.400 C 68.553 181.246,69.313 180.000,69.041 180.000 C 68.939 180.000,68.512 180.495,68.093 181.100 M320.832 181.698 C 320.814 182.083,320.422 183.489,319.960 184.825 C 319.498 186.160,319.203 187.337,319.306 187.439 C 319.612 187.745,321.301 182.095,321.073 181.526 C 320.935 181.180,320.852 181.240,320.832 181.698 M65.627 184.762 C 65.172 185.401,64.800 186.066,64.800 186.239 C 64.800 186.413,65.250 185.945,65.800 185.200 C 66.350 184.455,66.800 183.790,66.800 183.722 C 66.800 183.344,66.357 183.737,65.627 184.762 M63.278 189.272 C 60.937 194.205,60.448 195.419,60.163 197.000 C 60.004 197.880,59.633 199.179,59.337 199.887 C 59.042 200.595,58.808 201.495,58.818 201.887 C 58.839 202.767,59.810 200.160,60.563 197.200 C 61.200 194.695,63.207 189.771,64.225 188.218 C 64.601 187.645,64.811 187.078,64.693 186.960 C 64.575 186.841,63.938 187.882,63.278 189.272 M223.600 188.101 C 223.600 188.597,223.240 190.261,222.800 191.800 C 221.781 195.362,221.793 196.577,222.815 193.400 C 223.655 190.792,224.255 187.200,223.852 187.200 C 223.713 187.200,223.600 187.606,223.600 188.101 M158.272 189.419 C 157.902 190.193,157.604 191.046,157.609 191.314 C 157.614 191.581,157.977 191.008,158.416 190.040 C 159.367 187.944,159.239 187.391,158.272 189.419 M317.993 191.072 C 317.093 193.407,317.095 193.529,318.007 191.872 C 318.470 191.031,318.788 190.164,318.715 189.944 C 318.641 189.724,318.316 190.231,317.993 191.072 M88.197 194.040 C 87.816 199.361,88.019 199.616,91.884 198.683 C 94.743 197.992,99.826 196.040,98.800 196.026 C 98.470 196.021,97.433 196.366,96.495 196.791 C 89.685 199.882,88.217 199.348,88.606 193.920 C 88.760 191.764,88.796 190.000,88.686 190.000 C 88.576 190.000,88.356 191.818,88.197 194.040 M105.400 193.010 C 104.520 193.552,103.959 193.997,104.153 193.998 C 104.563 194.000,107.200 192.416,107.200 192.167 C 107.200 191.913,107.121 191.951,105.400 193.010 M282.872 194.913 C 282.392 196.069,282.007 197.192,282.016 197.408 C 282.025 197.623,282.486 196.746,283.040 195.457 C 283.594 194.169,283.979 193.046,283.895 192.962 C 283.812 192.878,283.351 193.756,282.872 194.913 M316.499 194.900 C 316.097 196.101,315.071 198.702,313.224 203.200 C 311.297 207.894,310.295 210.828,310.536 211.069 C 310.681 211.214,310.801 211.078,310.802 210.767 C 310.804 210.455,311.072 209.688,311.398 209.063 C 311.724 208.438,312.252 207.088,312.572 206.063 C 313.198 204.055,314.816 199.980,316.012 197.400 C 316.797 195.705,317.406 193.600,317.110 193.600 C 317.014 193.600,316.738 194.185,316.499 194.900 M101.800 194.800 C 101.140 195.237,100.780 195.595,101.000 195.595 C 101.220 195.595,101.940 195.237,102.600 194.800 C 103.260 194.363,103.620 194.005,103.400 194.005 C 103.180 194.005,102.460 194.363,101.800 194.800 M155.822 197.665 C 155.427 199.122,155.202 200.558,155.321 200.857 C 155.446 201.171,155.550 201.026,155.568 200.514 C 155.586 200.027,155.881 198.800,156.225 197.788 C 156.568 196.776,156.779 195.738,156.694 195.482 C 156.609 195.226,156.216 196.208,155.822 197.665 M120.200 197.135 C 119.540 197.537,118.460 198.078,117.800 198.336 L 116.600 198.805 117.788 198.573 C 118.978 198.340,122.552 196.410,121.800 196.405 C 121.580 196.404,120.860 196.732,120.200 197.135 M281.470 198.684 C 281.343 199.078,280.585 201.200,279.785 203.400 C 277.959 208.428,277.667 209.634,278.962 206.800 C 279.515 205.590,279.975 204.361,279.984 204.068 C 279.993 203.776,280.467 202.368,281.039 200.940 C 281.610 199.512,281.993 198.259,281.889 198.156 C 281.786 198.053,281.597 198.290,281.470 198.684 M220.459 201.294 C 219.985 202.892,219.608 204.470,219.620 204.800 C 219.632 205.130,220.089 203.891,220.634 202.046 C 221.179 200.201,221.557 198.623,221.473 198.540 C 221.389 198.456,220.933 199.695,220.459 201.294 M114.400 199.600 C 113.630 200.022,113.180 200.366,113.400 200.366 C 113.620 200.366,114.430 200.022,115.200 199.600 C 115.970 199.178,116.420 198.834,116.200 198.834 C 115.980 198.834,115.170 199.178,114.400 199.600 M188.872 201.158 C 187.936 202.824,185.974 209.164,186.041 210.306 C 186.063 210.688,186.230 210.460,186.412 209.800 C 186.594 209.140,187.095 207.304,187.526 205.720 C 187.957 204.136,188.711 202.192,189.201 201.399 C 189.690 200.606,190.013 199.879,189.917 199.783 C 189.821 199.687,189.350 200.306,188.872 201.158 M108.000 201.800 C 105.111 203.071,105.977 203.085,109.032 201.817 C 110.334 201.276,111.130 200.833,110.800 200.833 C 110.470 200.833,109.210 201.268,108.000 201.800 M154.893 202.800 C 154.893 203.570,154.975 203.885,155.076 203.500 C 155.176 203.115,155.176 202.485,155.076 202.100 C 154.975 201.715,154.893 202.030,154.893 202.800 M58.509 204.400 C 58.509 205.390,58.587 205.795,58.682 205.300 C 58.778 204.805,58.778 203.995,58.682 203.500 C 58.587 203.005,58.509 203.410,58.509 204.400 M101.800 203.808 C 98.633 205.063,99.509 205.068,103.031 203.815 C 104.554 203.273,105.440 202.836,105.000 202.843 C 104.560 202.850,103.120 203.284,101.800 203.808 M153.898 206.495 C 153.429 207.634,152.388 208.865,150.765 210.200 C 149.429 211.300,148.125 212.466,147.868 212.790 C 147.610 213.115,148.809 212.225,150.531 210.811 C 153.604 208.289,154.971 206.515,154.724 205.369 C 154.656 205.051,154.284 205.558,153.898 206.495 M251.100 206.723 C 250.147 209.425,250.246 210.287,251.224 207.800 C 251.656 206.700,251.963 205.561,251.905 205.270 C 251.847 204.978,251.485 205.632,251.100 206.723 M93.098 206.204 C 88.521 207.607,88.550 207.555,90.220 211.432 C 91.340 214.030,91.305 213.300,90.167 210.331 C 89.435 208.421,89.736 207.213,90.949 207.192 C 91.670 207.180,97.464 205.266,96.800 205.259 C 96.470 205.256,94.804 205.681,93.098 206.204 M218.500 208.395 C 217.276 212.053,217.370 212.895,218.612 209.400 C 219.159 207.860,219.560 206.399,219.503 206.152 C 219.447 205.906,218.995 206.915,218.500 208.395 M58.158 211.800 C 58.158 214.880,58.221 216.087,58.297 214.482 C 58.373 212.878,58.373 210.358,58.296 208.882 C 58.219 207.407,58.157 208.720,58.158 211.800 M336.200 212.621 C 330.568 217.528,324.596 222.189,321.094 224.410 C 319.722 225.280,318.732 225.994,318.894 225.996 C 320.098 226.012,327.657 220.371,335.957 213.264 C 342.584 207.590,342.548 207.586,342.724 214.043 C 342.879 219.732,342.675 220.154,338.109 223.600 C 327.924 231.286,325.866 232.800,325.601 232.800 C 325.441 232.800,324.631 233.340,323.800 234.000 C 319.392 237.503,325.743 233.411,331.200 229.232 C 333.070 227.800,336.319 225.332,338.420 223.748 C 343.081 220.234,343.200 219.994,343.200 214.061 C 343.200 206.917,342.833 206.842,336.200 212.621 M185.415 213.415 C 185.261 214.654,185.217 215.750,185.319 215.852 C 185.420 215.954,185.630 215.023,185.785 213.785 C 185.939 212.546,185.983 211.450,185.881 211.348 C 185.780 211.246,185.570 212.177,185.415 213.415 M276.671 213.340 C 275.141 218.196,274.300 229.214,275.171 233.000 C 275.323 233.660,275.370 231.950,275.275 229.200 C 275.092 223.847,275.876 216.880,277.051 213.432 C 277.402 212.401,277.612 211.479,277.517 211.383 C 277.421 211.288,277.041 212.168,276.671 213.340 M309.238 214.369 C 308.741 215.887,308.263 217.910,308.178 218.864 L 308.022 220.600 308.403 218.827 C 308.612 217.853,309.165 215.906,309.633 214.502 C 310.100 213.098,310.406 211.873,310.313 211.779 C 310.219 211.686,309.736 212.851,309.238 214.369 M248.820 215.020 C 248.325 216.688,248.001 218.134,248.100 218.233 C 248.199 218.332,248.685 217.048,249.180 215.380 C 249.675 213.712,249.999 212.266,249.900 212.167 C 249.801 212.068,249.315 213.352,248.820 215.020 M216.267 216.209 C 215.645 218.297,215.225 220.229,215.336 220.502 C 215.465 220.823,215.548 220.774,215.568 220.365 C 215.586 220.015,216.064 218.256,216.630 216.456 C 217.197 214.655,217.602 213.009,217.530 212.798 C 217.459 212.587,216.890 214.122,216.267 216.209 M143.600 215.844 C 139.766 218.772,136.823 220.784,133.600 222.681 C 132.390 223.393,131.548 223.981,131.729 223.988 C 132.431 224.014,137.906 220.542,141.947 217.510 C 142.746 216.910,144.033 215.990,144.806 215.464 C 146.030 214.632,147.574 213.156,147.149 213.224 C 147.067 213.237,145.470 214.416,143.600 215.844 M91.208 214.113 C 91.143 216.542,102.175 227.158,103.444 225.889 C 103.538 225.795,102.551 225.152,101.251 224.460 C 98.344 222.910,94.947 219.624,92.820 216.303 C 91.938 214.926,91.213 213.941,91.208 214.113 M184.431 219.560 C 184.139 221.360,183.986 222.919,184.092 223.025 C 184.358 223.291,185.337 217.411,185.130 216.790 C 185.038 216.513,184.723 217.760,184.431 219.560 M58.444 218.501 C 58.170 225.384,68.376 238.636,76.435 241.861 C 77.299 242.206,78.672 242.829,79.487 243.245 C 80.302 243.660,81.336 243.988,81.785 243.973 C 82.233 243.959,81.829 243.706,80.887 243.412 C 79.945 243.118,78.955 242.710,78.687 242.505 C 78.419 242.301,77.570 241.892,76.800 241.597 C 68.882 238.559,60.624 228.220,58.821 219.088 C 58.571 217.822,58.477 217.675,58.444 218.501 M247.064 220.921 C 246.133 223.549,245.733 225.577,246.536 223.600 C 247.729 220.660,248.068 219.604,247.936 219.230 C 247.861 219.017,247.469 219.778,247.064 220.921 M214.267 223.450 C 213.864 224.669,213.605 225.738,213.691 225.825 C 213.926 226.060,215.295 222.083,215.137 221.626 C 215.061 221.409,214.670 222.230,214.267 223.450 M149.400 224.034 C 146.644 226.251,138.348 232.193,136.948 232.952 C 135.753 233.600,133.347 235.500,134.400 234.964 C 134.930 234.694,141.458 230.398,143.765 228.800 C 145.263 227.763,147.731 225.870,149.626 224.307 C 152.584 221.866,152.754 222.031,152.906 227.500 L 153.037 232.200 153.018 227.400 C 152.997 221.691,152.679 221.395,149.400 224.034 M183.714 225.400 C 183.717 226.500,183.795 226.903,183.887 226.295 C 183.979 225.686,183.977 224.786,183.882 224.295 C 183.787 223.803,183.711 224.300,183.714 225.400 M128.800 225.000 C 127.810 225.530,127.180 225.964,127.400 225.964 C 127.620 225.964,128.610 225.530,129.600 225.000 C 130.590 224.470,131.220 224.036,131.000 224.036 C 130.780 224.036,129.790 224.470,128.800 225.000 M245.015 227.683 C 243.868 231.359,243.870 231.742,245.020 228.839 C 245.578 227.430,245.982 226.027,245.918 225.722 C 245.853 225.416,245.447 226.299,245.015 227.683 M309.506 226.764 C 311.209 228.375,314.061 228.467,316.800 227.000 C 318.969 225.839,318.623 225.666,316.400 226.800 C 314.132 227.957,311.440 227.863,309.638 226.564 L 308.200 225.528 309.506 226.764 M122.600 226.827 C 119.043 227.786,111.455 227.882,108.564 227.004 C 105.988 226.223,104.961 226.262,107.000 227.064 C 109.992 228.241,119.516 228.229,123.600 227.044 C 127.562 225.894,126.730 225.714,122.600 226.827 M183.344 231.600 C 183.344 233.690,183.412 234.545,183.494 233.500 C 183.576 232.455,183.576 230.745,183.494 229.700 C 183.412 228.655,183.344 229.510,183.344 231.600 M212.077 231.065 C 211.569 232.727,211.222 234.155,211.305 234.239 C 211.536 234.469,213.299 228.893,213.139 228.439 C 213.063 228.222,212.585 229.403,212.077 231.065 M243.442 232.926 C 243.284 233.765,242.612 235.872,241.949 237.608 C 240.649 241.012,240.600 241.052,237.014 241.637 L 235.000 241.966 237.331 241.809 C 238.613 241.722,240.053 241.395,240.531 241.082 C 241.464 240.469,244.249 232.944,243.913 231.944 C 243.812 231.645,243.600 232.087,243.442 232.926 M153.420 238.562 C 153.615 244.486,154.031 245.600,156.052 245.600 C 157.465 245.600,162.891 244.357,162.627 244.094 C 162.531 243.998,161.118 244.234,159.488 244.618 C 154.313 245.838,154.169 245.673,153.584 237.857 L 153.251 233.400 153.420 238.562 M275.600 234.772 C 275.600 238.516,283.934 245.414,288.936 245.810 L 291.000 245.973 289.086 245.618 C 284.152 244.702,279.073 240.986,276.822 236.644 C 276.150 235.348,275.600 234.506,275.600 234.772 M132.544 235.784 C 130.153 237.459,121.256 241.517,116.000 243.330 C 115.513 243.498,115.526 243.543,116.070 243.568 C 117.625 243.642,130.350 237.869,132.822 235.969 C 133.974 235.084,133.754 234.937,132.544 235.784 M319.100 237.021 C 317.615 238.012,316.400 238.919,316.400 239.035 C 316.400 239.152,316.625 239.108,316.900 238.938 C 320.071 236.979,322.524 235.150,321.900 235.210 C 321.845 235.215,320.585 236.030,319.100 237.021 M209.689 239.496 C 209.200 241.014,208.808 242.514,208.818 242.828 C 208.828 243.143,209.275 242.050,209.812 240.400 C 210.349 238.750,210.741 237.250,210.684 237.068 C 210.626 236.885,210.178 237.977,209.689 239.496 M182.000 239.307 C 181.106 240.325,180.428 240.550,175.600 241.424 C 168.836 242.650,165.093 243.523,166.416 243.566 C 166.975 243.585,168.505 243.317,169.816 242.972 C 171.127 242.626,173.820 242.081,175.800 241.761 C 181.113 240.903,183.667 239.771,183.141 238.508 C 183.063 238.321,182.550 238.681,182.000 239.307 M313.000 240.621 C 310.235 242.199,310.314 242.476,313.113 241.016 C 315.410 239.818,316.333 239.206,315.800 239.232 C 315.580 239.243,314.320 239.868,313.000 240.621 M230.600 242.609 C 229.500 242.892,227.880 243.167,227.000 243.222 C 225.774 243.297,225.652 243.358,226.478 243.484 C 227.446 243.632,229.450 243.328,233.600 242.404 C 234.955 242.102,234.961 242.092,233.800 242.094 C 233.140 242.094,231.700 242.326,230.600 242.609 M307.600 243.032 C 305.292 244.022,305.316 244.328,307.640 243.537 C 309.016 243.070,310.906 241.962,310.189 242.045 C 309.975 242.069,308.810 242.514,307.600 243.032 M111.000 244.478 C 109.460 244.901,106.580 245.390,104.600 245.566 C 101.261 245.863,101.179 245.890,103.465 245.943 C 106.028 246.002,110.498 245.251,113.600 244.240 C 116.187 243.397,114.310 243.568,111.000 244.478 M208.406 243.926 C 208.392 245.141,209.247 246.000,210.469 246.000 C 211.827 246.000,221.698 244.422,221.967 244.161 C 222.307 243.832,220.639 244.022,216.158 244.824 C 210.661 245.809,209.593 245.746,208.915 244.400 C 208.638 243.850,208.409 243.637,208.406 243.926 M222.900 243.876 C 223.285 243.976,223.915 243.976,224.300 243.876 C 224.685 243.775,224.370 243.693,223.600 243.693 C 222.830 243.693,222.515 243.775,222.900 243.876 M85.000 244.873 C 86.370 245.326,88.859 245.727,90.800 245.809 L 94.200 245.951 90.800 245.602 C 88.930 245.410,86.500 244.973,85.400 244.631 C 82.501 243.729,82.162 243.935,85.000 244.873 M302.604 244.641 C 301.726 244.962,299.836 245.376,298.404 245.562 C 296.399 245.821,296.168 245.909,297.400 245.943 C 299.109 245.991,303.665 245.038,304.747 244.406 C 305.775 243.805,304.507 243.944,302.604 244.641 " stroke="none" fill="#80bee8" fill-rule="evenodd"></path><path id="path3" d="M242.800 152.666 C 231.661 153.743,215.405 163.669,198.528 179.700 C 195.065 182.989,193.200 184.022,193.200 182.652 C 193.200 181.635,198.894 165.875,199.574 165.009 C 199.751 164.784,200.115 163.918,200.384 163.085 C 200.652 162.252,201.393 160.542,202.031 159.285 C 202.668 158.028,203.192 156.797,203.195 156.549 C 203.198 156.301,203.470 155.874,203.800 155.600 C 204.572 154.960,204.568 153.837,203.792 153.193 C 203.124 152.639,198.197 153.125,193.284 154.230 C 191.901 154.541,189.111 154.979,187.084 155.204 C 176.598 156.365,174.179 157.194,172.464 160.213 C 165.611 172.281,158.644 187.719,157.217 194.000 C 156.942 195.210,156.484 196.920,156.199 197.800 C 155.914 198.680,155.474 200.840,155.221 202.600 C 154.514 207.518,152.393 210.089,144.400 215.719 C 143.850 216.106,142.746 216.913,141.947 217.511 C 130.452 226.125,118.112 229.933,109.200 227.617 C 104.587 226.419,102.858 225.821,101.098 224.816 C 96.297 222.074,92.467 217.461,90.282 211.790 C 88.551 207.295,88.405 207.496,94.600 205.855 C 99.547 204.545,104.734 202.962,107.486 201.923 C 108.634 201.489,110.434 200.893,111.486 200.597 C 120.758 197.992,134.412 190.024,139.544 184.224 C 150.700 171.615,143.486 155.889,125.323 153.222 C 116.120 151.871,102.257 154.126,95.400 158.089 C 94.960 158.343,93.912 158.888,93.072 159.299 C 79.523 165.923,62.990 185.053,60.611 196.859 C 60.463 197.597,59.961 199.280,59.497 200.600 C 58.749 202.729,58.651 203.926,58.627 211.200 L 58.600 219.400 59.848 222.814 C 61.642 227.721,63.387 230.581,66.709 234.061 C 69.224 236.695,74.965 241.200,75.807 241.200 C 75.959 241.200,76.985 241.653,78.087 242.206 C 81.530 243.936,88.433 245.486,94.000 245.781 C 112.122 246.742,126.352 241.398,146.925 225.908 C 152.806 221.479,152.971 221.487,153.093 226.205 C 153.232 231.567,153.972 242.870,154.251 243.904 C 154.620 245.270,156.037 245.390,160.528 244.436 C 168.655 242.709,170.291 242.381,175.600 241.422 C 183.168 240.054,182.994 240.280,183.323 231.364 C 183.587 224.231,185.543 211.074,187.175 205.459 C 188.539 200.767,191.668 196.194,196.247 192.200 C 197.761 190.880,199.899 188.977,200.999 187.972 C 203.745 185.462,211.189 179.739,214.690 177.445 C 224.002 171.345,227.387 172.743,225.234 181.800 C 224.815 183.560,224.259 186.429,223.997 188.176 C 223.736 189.923,223.345 191.813,223.128 192.376 C 222.912 192.939,222.387 194.930,221.962 196.800 C 221.226 200.039,220.408 203.075,217.596 213.000 C 215.732 219.582,214.538 223.860,213.633 227.200 C 213.186 228.850,212.458 231.370,212.016 232.800 C 207.717 246.700,207.599 246.352,216.077 244.845 C 218.565 244.403,222.763 243.761,225.406 243.420 C 228.049 243.078,230.764 242.640,231.439 242.446 C 232.115 242.252,233.822 241.969,235.234 241.815 C 241.003 241.189,241.338 240.815,243.630 232.461 C 244.923 227.748,246.090 223.850,246.822 221.800 C 247.692 219.367,249.511 213.003,250.197 210.000 C 250.473 208.790,250.899 207.301,251.143 206.692 C 251.387 206.083,251.855 204.424,252.184 203.006 C 253.400 197.765,257.072 193.150,266.171 185.426 C 275.976 177.104,280.131 174.653,284.485 174.620 C 289.999 174.579,289.956 177.191,284.197 192.400 C 276.742 212.087,275.478 217.075,275.432 227.005 L 275.400 233.810 276.800 236.553 C 283.658 249.990,301.768 249.007,323.800 234.003 C 324.460 233.553,325.990 232.525,327.200 231.717 C 328.410 230.910,330.660 229.276,332.200 228.086 C 333.740 226.897,336.475 224.816,338.277 223.462 C 342.661 220.169,342.878 219.708,342.724 214.043 C 342.548 207.586,342.584 207.590,335.957 213.264 C 320.298 226.672,313.344 230.268,309.585 226.900 C 306.286 223.944,307.388 217.832,314.402 200.200 C 315.102 198.440,316.215 195.650,316.875 194.000 C 325.018 173.653,324.234 160.267,314.567 154.602 C 310.538 152.240,301.421 152.034,297.200 154.208 C 296.650 154.492,294.670 155.432,292.800 156.299 C 289.809 157.684,287.600 158.989,284.000 161.494 C 278.118 165.588,275.303 167.691,270.000 171.953 C 266.590 174.694,262.952 177.648,261.916 178.517 C 259.280 180.730,258.603 180.404,258.955 177.092 C 260.368 163.781,258.862 158.925,251.875 154.260 C 250.135 153.098,245.945 152.362,242.800 152.666 M251.000 154.867 C 257.480 158.132,259.206 162.653,258.337 174.092 C 257.791 181.280,258.375 182.668,260.944 180.287 C 261.486 179.785,262.518 178.930,263.238 178.387 C 263.957 177.844,266.178 176.044,268.173 174.387 C 270.168 172.730,272.267 171.020,272.837 170.587 C 279.147 165.797,283.068 162.983,287.733 159.897 C 289.320 158.847,295.729 155.600,296.214 155.600 C 296.340 155.600,297.213 155.249,298.154 154.821 C 299.094 154.393,301.290 153.864,303.032 153.646 C 316.321 151.985,323.386 160.418,321.166 175.293 C 320.459 180.032,318.011 189.606,317.269 190.535 C 317.064 190.791,316.611 191.990,316.262 193.200 C 315.912 194.410,315.261 196.113,314.813 196.985 C 314.366 197.856,314.000 198.797,314.000 199.076 C 314.000 199.354,313.571 200.531,313.046 201.691 C 311.569 204.955,310.376 208.025,309.819 210.000 C 309.539 210.990,309.024 212.476,308.675 213.302 C 306.426 218.615,306.491 225.188,308.815 227.414 C 311.397 229.888,319.374 228.103,323.889 224.040 C 324.281 223.688,325.989 222.365,327.687 221.101 C 330.894 218.711,335.485 214.849,339.101 211.500 C 341.812 208.988,342.000 209.175,342.000 214.391 C 342.000 219.811,342.122 219.538,338.457 222.328 C 329.642 229.040,326.750 231.172,324.200 232.835 C 322.660 233.840,320.050 235.538,318.400 236.609 C 309.894 242.128,301.356 244.981,293.400 244.961 C 279.595 244.926,273.246 234.942,276.765 218.800 C 278.600 210.385,278.829 209.457,279.372 208.252 C 279.683 207.564,280.238 205.920,280.606 204.600 C 280.974 203.280,281.422 202.020,281.600 201.800 C 281.778 201.580,282.237 200.320,282.619 199.000 C 283.001 197.680,283.544 196.240,283.824 195.800 C 284.105 195.360,284.548 194.191,284.809 193.202 C 285.070 192.213,285.600 190.773,285.988 190.002 C 286.375 189.231,286.819 187.899,286.975 187.042 C 287.131 186.184,287.519 185.085,287.837 184.599 C 290.179 181.025,289.701 175.153,286.969 173.945 C 280.348 171.016,253.524 191.941,251.773 201.400 C 251.610 202.280,251.055 204.212,250.539 205.692 C 250.022 207.173,249.600 208.742,249.600 209.177 C 249.600 209.613,249.249 210.922,248.821 212.085 C 248.392 213.248,247.763 215.422,247.423 216.916 C 247.083 218.410,246.550 220.123,246.239 220.724 C 245.929 221.325,245.485 222.843,245.253 224.098 C 245.021 225.353,244.576 226.880,244.265 227.490 C 243.953 228.101,243.412 229.770,243.062 231.200 C 241.051 239.415,240.382 240.350,236.145 240.862 C 234.415 241.072,231.200 241.587,229.000 242.007 C 226.800 242.427,223.200 242.966,221.000 243.205 C 218.800 243.443,215.516 243.936,213.702 244.301 C 209.580 245.129,209.188 244.887,210.179 242.125 C 210.559 241.066,211.113 239.135,211.411 237.834 C 211.709 236.532,212.307 234.462,212.740 233.234 C 213.174 232.005,213.799 229.920,214.130 228.600 C 215.136 224.585,215.992 221.546,217.004 218.400 C 217.535 216.750,218.095 214.680,218.248 213.800 C 218.400 212.920,218.763 211.631,219.053 210.936 C 219.343 210.242,219.767 208.802,219.995 207.736 C 220.224 206.671,220.841 204.360,221.367 202.600 C 223.299 196.133,226.276 182.455,226.670 178.228 C 226.953 175.204,226.382 173.960,224.246 172.941 C 218.863 170.374,189.569 194.465,186.965 203.600 C 186.682 204.590,186.178 206.120,185.843 207.000 C 185.509 207.880,185.227 208.992,185.218 209.471 C 185.208 209.949,184.835 212.194,184.388 214.460 C 183.529 218.819,183.120 222.398,182.349 232.333 C 181.921 237.833,181.786 238.520,181.036 238.996 C 179.999 239.655,175.998 240.677,173.145 241.013 C 171.965 241.151,169.740 241.599,168.200 242.007 C 165.502 242.723,158.852 243.957,156.812 244.121 C 155.018 244.265,154.008 237.582,154.002 225.514 C 154.000 222.478,153.900 221.975,153.226 221.614 C 152.025 220.971,151.810 221.061,149.123 223.332 C 146.527 225.525,143.876 227.443,139.000 230.655 C 137.460 231.669,135.718 232.833,135.129 233.240 C 133.767 234.182,130.695 235.947,126.600 238.139 C 113.158 245.334,88.181 247.347,79.600 241.927 C 79.050 241.579,78.136 241.188,77.569 241.057 C 73.732 240.172,65.585 232.778,62.748 227.605 C 58.183 219.283,57.956 204.739,62.236 194.750 C 62.766 193.512,63.200 192.249,63.200 191.943 C 63.200 191.636,63.625 190.759,64.144 189.993 C 64.662 189.227,65.211 188.206,65.363 187.724 C 66.134 185.275,71.396 178.208,75.982 173.462 C 80.900 168.372,84.667 165.337,91.000 161.363 C 92.860 160.195,98.143 157.614,98.688 157.607 C 98.956 157.603,99.856 157.249,100.688 156.820 C 103.869 155.178,113.296 153.553,119.000 153.662 C 134.573 153.960,144.000 160.706,144.000 171.551 C 144.000 180.090,138.276 186.876,125.400 193.600 C 124.300 194.174,123.040 194.845,122.600 195.090 C 120.974 195.997,116.436 198.000,116.009 198.000 C 115.767 198.000,114.890 198.346,114.060 198.769 C 113.231 199.192,111.415 199.833,110.025 200.194 C 108.635 200.554,107.116 201.087,106.649 201.379 C 106.182 201.671,104.810 202.134,103.600 202.407 C 102.390 202.681,101.220 203.039,101.000 203.204 C 100.780 203.368,99.160 203.820,97.400 204.207 C 88.994 206.058,87.322 207.499,89.153 211.319 C 89.596 212.243,90.134 213.469,90.348 214.043 C 91.804 217.945,96.887 223.453,100.887 225.462 C 112.723 231.408,125.907 229.748,138.872 220.678 C 140.191 219.755,141.660 218.737,142.135 218.416 C 142.611 218.094,143.550 217.374,144.222 216.816 C 144.894 216.257,146.045 215.350,146.781 214.800 C 154.198 209.252,155.320 207.881,155.781 203.800 C 155.930 202.480,156.387 200.320,156.795 199.000 C 157.204 197.680,157.805 195.520,158.133 194.200 C 158.460 192.880,159.266 190.360,159.924 188.600 C 160.582 186.840,161.409 184.590,161.761 183.600 C 162.437 181.698,162.588 181.367,166.237 173.800 C 169.309 167.431,173.897 158.984,174.602 158.398 C 174.913 158.140,176.480 157.767,178.084 157.568 C 179.688 157.369,182.080 156.948,183.400 156.632 C 184.720 156.317,186.970 155.945,188.400 155.806 C 189.830 155.667,193.469 155.104,196.488 154.556 C 203.979 153.195,204.088 153.264,201.763 157.894 C 200.794 159.822,200.002 161.615,200.001 161.879 C 200.000 162.142,199.550 163.204,199.000 164.238 C 198.450 165.273,198.000 166.358,198.000 166.651 C 198.000 166.943,197.562 168.131,197.026 169.291 C 196.491 170.451,195.788 172.210,195.464 173.200 C 194.163 177.177,193.467 179.074,192.750 180.600 C 190.302 185.807,192.919 186.329,197.600 181.567 C 198.590 180.560,201.380 178.044,203.800 175.978 C 206.220 173.911,208.290 172.125,208.400 172.008 C 210.804 169.465,225.068 159.612,228.400 158.193 C 229.170 157.865,230.340 157.306,231.000 156.950 C 237.691 153.343,246.213 152.455,251.000 154.867 M107.358 161.556 C 99.975 163.453,90.393 175.942,88.451 186.200 C 86.112 198.557,86.754 202.054,90.960 199.875 C 91.642 199.522,92.920 199.114,93.800 198.969 C 94.680 198.824,96.600 198.186,98.067 197.552 C 99.534 196.919,100.915 196.400,101.136 196.400 C 101.358 196.400,102.916 195.635,104.600 194.700 C 106.284 193.765,108.309 192.640,109.100 192.200 C 109.891 191.760,111.816 190.140,113.377 188.600 C 126.302 175.847,122.269 157.725,107.358 161.556 M116.476 163.201 C 124.307 168.388,119.133 185.862,107.961 191.961 C 103.190 194.565,101.477 195.364,97.600 196.793 C 87.777 200.412,87.633 200.350,88.338 192.819 C 89.324 182.289,93.050 173.993,99.717 167.481 C 105.329 162.000,112.066 160.280,116.476 163.201 " stroke="none" fill="#9eccec" fill-rule="evenodd"></path><path id="path4" d="M114.000 151.991 C 108.988 152.508,105.210 153.175,104.076 153.743 C 103.484 154.040,102.117 154.499,101.037 154.763 C 85.835 158.481,63.681 180.645,59.819 196.000 C 59.515 197.210,59.004 198.920,58.684 199.800 C 56.809 204.958,57.116 220.008,59.175 223.848 C 59.629 224.695,60.000 225.681,60.000 226.038 C 60.000 226.396,60.443 227.341,60.985 228.140 C 61.526 228.938,62.201 230.024,62.485 230.553 C 63.299 232.075,68.059 237.218,69.600 238.241 C 70.370 238.753,71.720 239.676,72.600 240.294 C 81.645 246.644,101.440 248.917,113.477 244.987 C 115.141 244.444,116.884 243.999,117.351 243.999 C 117.818 243.998,118.740 243.674,119.400 243.280 C 120.060 242.886,121.343 242.346,122.251 242.080 C 123.159 241.814,125.532 240.698,127.525 239.599 C 129.517 238.499,131.246 237.600,131.367 237.600 C 131.769 237.600,139.639 232.458,143.000 230.000 C 143.752 229.450,145.016 228.550,145.810 228.000 C 146.603 227.450,148.175 226.235,149.302 225.300 C 152.394 222.736,152.245 222.346,152.566 233.843 C 152.874 244.840,153.036 245.843,154.569 246.228 C 155.762 246.527,160.854 245.734,162.753 244.953 C 163.497 244.647,165.567 244.228,167.353 244.022 C 169.139 243.816,171.500 243.381,172.600 243.057 C 173.700 242.732,176.295 242.191,178.366 241.856 C 183.843 240.968,183.722 241.162,184.071 232.696 C 184.227 228.903,184.546 225.170,184.779 224.400 C 185.012 223.630,185.481 220.660,185.821 217.800 C 186.161 214.940,186.704 211.659,187.028 210.508 C 187.353 209.358,187.793 207.491,188.008 206.360 C 189.022 201.011,193.692 195.215,203.600 187.011 C 218.458 174.707,226.095 171.492,224.744 178.110 C 224.554 179.039,224.125 181.532,223.790 183.649 C 223.455 185.767,222.912 188.467,222.584 189.649 C 222.255 190.832,221.811 192.920,221.596 194.289 C 221.382 195.658,220.857 197.818,220.431 199.089 C 220.005 200.360,219.434 202.480,219.162 203.800 C 218.891 205.120,218.449 206.650,218.180 207.200 C 217.911 207.750,217.478 209.280,217.218 210.600 C 216.958 211.920,216.503 213.540,216.206 214.200 C 215.909 214.860,215.389 216.660,215.050 218.200 C 214.711 219.740,214.071 221.990,213.630 223.200 C 213.188 224.410,212.820 225.732,212.813 226.137 C 212.806 226.542,212.365 228.162,211.833 229.737 C 211.301 231.312,210.596 233.680,210.266 235.000 C 209.936 236.320,209.197 239.103,208.623 241.184 C 207.474 245.349,207.508 245.833,208.988 246.395 C 210.129 246.829,217.811 245.971,221.800 244.964 C 223.120 244.631,225.370 244.270,226.800 244.162 C 229.824 243.933,237.889 242.550,240.171 241.869 C 241.384 241.507,241.825 241.127,242.107 240.200 C 242.307 239.540,242.749 238.383,243.088 237.630 C 243.427 236.876,243.938 235.256,244.224 234.030 C 244.510 232.803,245.123 230.630,245.587 229.200 C 246.050 227.770,246.888 225.070,247.450 223.200 C 248.011 221.330,248.748 218.990,249.089 218.000 C 249.429 217.010,250.049 214.693,250.466 212.850 C 250.884 211.008,251.388 209.196,251.586 208.825 C 251.785 208.454,252.230 206.902,252.575 205.375 C 254.016 198.996,254.947 197.472,261.179 191.279 C 276.871 175.685,291.670 169.762,286.997 180.946 C 286.665 181.739,286.194 183.336,285.950 184.494 C 285.706 185.652,285.349 186.797,285.157 187.037 C 284.965 187.277,284.383 188.717,283.864 190.237 C 282.272 194.906,281.530 196.934,280.806 198.600 C 280.424 199.480,279.799 201.280,279.418 202.600 C 279.036 203.920,278.566 205.192,278.373 205.428 C 278.180 205.663,277.739 207.103,277.393 208.628 C 277.047 210.152,276.516 211.940,276.214 212.600 C 275.456 214.252,274.000 224.113,274.000 227.590 C 274.000 245.448,291.279 252.179,311.800 242.317 C 315.360 240.606,315.254 240.666,320.000 237.635 C 326.226 233.658,327.778 232.614,330.198 230.771 C 331.519 229.765,333.435 228.306,334.455 227.529 C 335.476 226.751,336.556 225.901,336.855 225.640 C 337.155 225.378,338.635 224.247,340.144 223.127 C 343.701 220.484,344.000 219.739,344.000 213.493 C 344.000 206.357,342.924 205.789,337.950 210.300 C 332.015 215.682,322.095 223.600,321.287 223.600 C 321.122 223.600,320.359 224.016,319.593 224.525 C 315.162 227.466,310.082 227.675,309.040 224.959 C 308.272 222.960,310.026 213.185,311.688 210.200 C 311.933 209.760,312.446 208.410,312.828 207.200 C 313.493 205.095,314.205 203.242,316.210 198.400 C 319.746 189.858,322.035 182.322,323.245 175.232 C 323.766 172.182,323.574 164.347,322.959 163.556 C 322.721 163.250,322.221 162.214,321.848 161.254 C 318.409 152.403,306.153 148.887,295.800 153.781 C 289.729 156.650,287.625 157.774,286.000 159.013 C 285.010 159.768,283.570 160.756,282.800 161.207 C 282.030 161.659,280.680 162.571,279.800 163.233 C 278.920 163.895,277.740 164.744,277.179 165.119 C 276.081 165.851,273.587 167.848,265.711 174.300 C 259.408 179.464,259.110 179.520,260.200 175.335 C 262.749 165.549,257.934 154.817,249.852 152.269 C 243.554 150.284,233.585 152.762,224.000 158.695 C 223.010 159.308,221.596 160.167,220.857 160.605 C 219.725 161.275,214.816 164.893,208.478 169.727 C 207.665 170.347,206.280 171.512,205.400 172.316 C 204.520 173.120,203.080 174.385,202.200 175.128 C 201.320 175.871,199.386 177.650,197.903 179.080 C 195.033 181.848,194.025 181.833,195.185 179.041 C 195.468 178.358,196.049 176.810,196.476 175.600 C 196.903 174.390,197.590 172.680,198.003 171.800 C 198.415 170.920,198.884 169.660,199.044 169.000 C 199.204 168.340,199.755 166.964,200.268 165.942 C 200.780 164.920,201.200 163.877,201.200 163.624 C 201.200 163.370,201.650 162.318,202.200 161.285 C 202.750 160.252,203.200 159.205,203.200 158.959 C 203.200 158.713,203.631 157.876,204.159 157.099 C 206.811 153.191,205.614 151.147,201.144 151.952 C 199.525 152.243,196.760 152.635,195.000 152.823 C 193.240 153.011,190.810 153.439,189.600 153.774 C 188.390 154.109,186.050 154.492,184.400 154.626 C 176.281 155.283,173.170 156.358,171.962 158.923 C 171.528 159.845,170.562 161.680,169.816 163.000 C 168.620 165.116,164.088 174.130,161.973 178.600 C 160.614 181.472,158.800 185.924,158.800 186.387 C 158.800 186.636,158.499 187.416,158.130 188.120 C 157.762 188.824,157.231 190.300,156.951 191.400 C 156.670 192.500,156.098 194.390,155.679 195.600 C 155.260 196.810,154.790 198.941,154.635 200.335 C 153.899 206.940,153.008 208.163,144.213 214.633 C 143.340 215.275,142.324 216.070,141.954 216.400 C 141.210 217.063,139.632 218.152,136.584 220.107 C 135.475 220.818,134.215 221.629,133.784 221.910 C 133.353 222.190,132.190 222.780,131.200 223.220 C 130.210 223.660,128.680 224.356,127.800 224.766 C 123.513 226.764,113.630 227.392,107.580 226.051 C 99.737 224.313,93.805 218.971,91.150 211.255 C 89.952 207.772,89.382 208.260,97.000 206.236 C 99.200 205.651,101.810 204.894,102.800 204.553 C 103.790 204.212,105.680 203.605,107.000 203.203 C 111.465 201.845,119.472 198.767,121.438 197.652 C 121.857 197.415,122.830 196.936,123.600 196.589 C 124.370 196.241,125.825 195.472,126.833 194.878 C 127.842 194.285,129.458 193.371,130.424 192.846 C 148.079 183.257,151.106 165.127,136.565 156.068 C 135.446 155.371,134.314 154.800,134.049 154.800 C 133.785 154.800,132.857 154.437,131.988 153.994 C 128.793 152.364,119.938 151.378,114.000 151.991 M249.600 152.829 C 257.731 154.903,260.806 162.554,259.353 177.100 C 259.012 180.517,259.079 180.497,265.441 175.220 C 272.368 169.474,277.165 165.774,281.912 162.514 C 283.294 161.565,285.320 160.159,286.415 159.389 C 287.510 158.620,289.980 157.255,291.903 156.357 C 293.826 155.459,296.059 154.379,296.863 153.957 C 298.733 152.977,305.934 151.888,308.353 152.220 C 316.460 153.331,321.944 159.095,322.987 167.600 C 323.554 172.222,321.027 184.538,317.981 192.000 C 317.577 192.990,317.033 194.520,316.772 195.400 C 316.511 196.280,316.058 197.450,315.766 198.000 C 314.998 199.448,313.252 203.878,312.536 206.200 C 312.196 207.300,311.777 208.380,311.604 208.600 C 310.553 209.939,308.239 219.201,308.220 222.143 C 308.157 231.974,317.261 228.958,335.749 213.022 C 342.954 206.812,343.200 206.846,343.200 214.061 C 343.200 219.994,343.081 220.234,338.420 223.748 C 336.319 225.332,333.070 227.800,331.200 229.232 C 327.803 231.833,322.968 235.200,322.630 235.200 C 322.531 235.200,321.224 236.043,319.725 237.073 C 300.204 250.489,278.502 248.638,275.249 233.280 C 274.299 228.795,275.038 218.325,276.648 213.461 C 277.002 212.394,277.525 210.594,277.811 209.461 C 278.322 207.442,279.717 203.380,281.816 197.800 C 282.396 196.260,283.303 193.740,283.832 192.200 C 284.360 190.660,284.944 189.130,285.129 188.800 C 287.606 184.377,288.817 176.065,287.117 175.155 C 280.427 171.575,254.507 192.806,252.390 203.600 C 252.153 204.810,251.780 206.230,251.562 206.756 C 251.344 207.282,250.638 209.712,249.994 212.156 C 248.832 216.560,247.852 219.941,246.618 223.800 C 246.267 224.900,245.545 227.240,245.014 229.000 C 241.096 241.980,241.487 241.392,236.366 242.017 C 234.515 242.243,232.460 242.598,231.800 242.806 C 231.140 243.014,228.800 243.377,226.600 243.612 C 224.400 243.847,222.330 244.116,222.000 244.211 C 220.609 244.609,211.695 245.996,210.514 245.998 C 208.316 246.002,208.021 243.953,209.615 239.760 C 209.855 239.129,210.488 236.991,211.021 235.007 C 211.555 233.023,212.541 229.510,213.211 227.200 C 213.882 224.890,214.871 221.380,215.410 219.400 C 215.949 217.420,216.857 214.180,217.428 212.200 C 219.185 206.108,220.767 200.323,221.422 197.600 C 221.766 196.170,222.385 193.650,222.797 192.000 C 223.209 190.350,223.665 188.100,223.810 187.000 C 223.954 185.900,224.429 183.437,224.864 181.526 C 226.523 174.238,223.545 171.959,217.624 175.985 C 217.061 176.368,215.521 177.383,214.202 178.240 C 208.390 182.020,198.598 190.190,193.795 195.265 C 188.998 200.335,187.560 203.595,185.975 213.000 C 185.568 215.420,184.955 218.954,184.613 220.852 C 184.272 222.751,183.805 227.607,183.576 231.644 C 183.046 240.962,183.375 240.548,175.496 241.802 C 173.349 242.143,171.178 242.580,170.672 242.772 C 170.167 242.965,168.323 243.334,166.576 243.593 C 164.829 243.852,162.061 244.409,160.425 244.832 C 156.408 245.869,154.973 245.835,154.220 244.686 C 153.599 243.739,152.818 233.583,152.806 226.300 C 152.799 222.147,152.483 221.949,149.626 224.307 C 147.718 225.881,145.242 227.778,143.762 228.800 C 128.583 239.278,120.946 242.911,108.800 245.431 C 104.316 246.361,90.055 246.192,86.164 245.163 C 84.424 244.702,82.280 244.152,81.400 243.940 C 80.520 243.729,79.440 243.327,79.000 243.049 C 78.560 242.770,77.449 242.248,76.532 241.887 C 69.737 239.218,62.466 231.103,59.464 222.837 C 57.929 218.612,57.622 205.561,58.955 201.200 C 59.324 199.990,59.894 197.942,60.220 196.650 C 60.547 195.357,61.059 193.827,61.359 193.250 C 61.658 192.672,62.593 190.760,63.437 189.000 C 69.064 177.254,81.738 164.555,93.953 158.423 C 97.399 156.693,102.064 154.800,102.882 154.800 C 103.182 154.800,104.441 154.444,105.679 154.009 C 110.914 152.169,126.060 152.129,130.170 153.944 C 131.066 154.341,132.340 154.799,133.000 154.963 C 142.190 157.246,148.047 170.364,143.643 178.800 C 139.562 186.616,128.800 194.752,117.000 198.942 C 116.120 199.255,114.680 199.782,113.800 200.115 C 107.891 202.346,102.729 203.990,94.600 206.229 C 88.943 207.787,89.094 207.556,90.761 212.095 C 96.850 228.675,118.639 232.756,136.800 220.719 C 150.043 211.941,154.169 207.812,154.864 202.638 C 155.324 199.222,157.338 191.661,158.420 189.289 C 158.849 188.348,159.200 187.381,159.200 187.139 C 159.200 186.898,159.678 185.598,160.261 184.250 C 160.845 182.903,161.942 180.360,162.698 178.600 C 164.164 175.193,167.500 168.432,169.509 164.800 C 170.178 163.590,171.300 161.558,172.001 160.284 C 173.849 156.931,176.730 155.844,186.000 155.005 C 187.650 154.856,189.990 154.488,191.200 154.189 C 195.618 153.095,203.533 152.246,204.194 152.795 C 205.010 153.473,204.957 154.653,204.052 155.938 C 203.641 156.522,203.168 157.450,203.001 158.000 C 202.834 158.550,202.270 159.809,201.748 160.797 C 201.227 161.785,200.800 162.763,200.800 162.971 C 200.800 163.178,200.454 164.079,200.031 164.974 C 199.608 165.868,198.680 168.130,197.969 170.000 C 197.259 171.870,196.165 174.719,195.538 176.331 C 192.929 183.046,193.597 184.048,197.913 179.890 C 212.662 165.681,229.561 154.556,239.000 152.841 C 243.590 152.007,246.367 152.004,249.600 152.829 M105.168 163.828 C 96.391 168.510,89.946 179.844,88.736 192.722 C 88.134 199.127,88.237 199.275,92.468 198.077 C 110.520 192.966,119.752 184.060,119.709 171.800 C 119.679 163.343,112.970 159.665,105.168 163.828 M116.020 164.095 C 119.347 165.982,119.879 177.577,116.818 181.468 C 116.368 182.040,116.000 182.721,116.000 182.981 C 116.000 183.430,110.947 188.732,109.309 190.000 C 107.349 191.519,100.340 194.970,97.863 195.637 C 96.951 195.883,95.555 196.415,94.760 196.820 C 92.776 197.833,89.386 198.267,89.117 197.544 C 88.877 196.897,89.392 189.060,89.708 188.549 C 89.828 188.354,90.394 186.439,90.965 184.293 C 91.536 182.147,92.363 179.720,92.802 178.901 C 93.241 178.082,93.600 177.270,93.600 177.096 C 93.600 176.356,98.081 170.305,100.039 168.400 C 102.076 166.420,104.540 164.411,104.940 164.405 C 105.126 164.402,105.846 164.140,106.540 163.823 C 109.316 162.553,113.513 162.673,116.020 164.095 " stroke="none" fill="#64b4e4" fill-rule="evenodd"></path></g></svg>