<?xml version="1.0" standalone="no"?>
<!DOCTYPE svg PUBLIC "-//W3C//DTD SVG 20010904//EN"
 "http://www.w3.org/TR/2001/REC-SVG-20010904/DTD/svg10.dtd">
<svg version="1.0" xmlns="http://www.w3.org/2000/svg"
 width="400.000000pt" height="400.000000pt" viewBox="0 0 400.000000 400.000000"
 preserveAspectRatio="xMidYMid meet">
<metadata>
Created by potrace 1.11, written by Peter Selinger 2001-2013
</metadata>
<g transform="translate(0.000000,400.000000) scale(0.100000,-0.100000)"
fill="#000000" stroke="none">
<path d="M1779 3984 c-8 -10 -15 -11 -24 -4 -9 7 -15 8 -19 1 -4 -6 -22 -9
-41 -7 -19 1 -32 -1 -29 -5 2 -4 -4 -10 -13 -14 -10 -3 -19 -1 -21 5 -3 7 -9
7 -20 -2 -8 -7 -17 -12 -19 -10 -1 1 -10 2 -19 2 -9 0 -12 -5 -8 -12 6 -10 5
-10 -7 -1 -9 8 -20 9 -29 3 -8 -6 -26 -10 -40 -10 -15 0 -31 -5 -36 -10 -6 -6
-24 -12 -40 -14 -16 -2 -33 -4 -37 -5 -5 0 -5 -6 -1 -13 5 -7 3 -8 -6 -3 -7 4
-16 2 -21 -6 -5 -8 -9 -9 -9 -3 0 8 -11 6 -34 -4 -20 -9 -32 -20 -29 -26 4 -6
-1 -5 -10 3 -13 10 -17 10 -17 1 0 -7 -7 -10 -15 -6 -8 3 -19 -2 -24 -12 -6
-9 -11 -14 -11 -9 0 4 -10 1 -23 -8 -13 -8 -27 -12 -30 -8 -4 3 -7 1 -7 -6 0
-7 -5 -9 -10 -6 -5 3 -10 1 -10 -5 0 -6 -4 -8 -10 -5 -5 3 -10 1 -10 -5 0 -6
-4 -8 -10 -5 -5 3 -10 1 -10 -5 0 -6 -4 -8 -10 -5 -5 3 -10 1 -10 -5 0 -6 -4
-9 -9 -6 -5 3 -11 -1 -15 -9 -3 -8 -15 -15 -26 -15 -11 0 -20 -5 -20 -11 0 -5
-4 -8 -9 -5 -5 4 -11 3 -13 -1 -1 -5 -33 -28 -70 -52 -38 -24 -68 -47 -68 -52
0 -5 -7 -9 -15 -9 -9 0 -18 -7 -22 -16 -3 -8 -12 -13 -19 -10 -7 3 -16 -4 -19
-15 -4 -10 -11 -17 -16 -14 -5 4 -9 1 -9 -5 0 -6 -7 -13 -15 -16 -8 -3 -37
-28 -64 -55 -27 -27 -55 -49 -61 -49 -6 0 -8 -4 -5 -10 3 -5 1 -10 -5 -10 -6
0 -8 -4 -5 -10 3 -5 2 -10 -2 -10 -16 0 -73 -52 -73 -66 0 -8 -4 -14 -10 -14
-8 0 -79 -86 -105 -129 -5 -9 -14 -19 -20 -23 -5 -4 -6 -8 -1 -8 5 0 -4 -12
-20 -26 -16 -15 -23 -23 -16 -20 20 12 13 -8 -8 -22 -12 -7 -18 -17 -15 -22 3
-6 1 -10 -4 -10 -6 0 -11 -6 -11 -14 0 -8 -3 -16 -7 -18 -16 -7 -44 -69 -37
-81 4 -6 4 -9 -1 -5 -10 10 -48 -50 -40 -63 4 -5 1 -9 -5 -9 -6 0 -9 -4 -6 -9
3 -5 -1 -12 -10 -15 -9 -4 -14 -9 -10 -13 3 -3 -2 -15 -11 -26 -13 -15 -14
-18 -3 -12 12 7 13 6 3 -7 -7 -8 -10 -18 -6 -21 3 -4 1 -7 -5 -7 -7 0 -12 -9
-12 -20 0 -11 -4 -20 -10 -20 -5 0 -7 -7 -4 -15 4 -8 1 -15 -6 -15 -6 0 -9 -4
-5 -9 3 -5 1 -13 -5 -16 -8 -5 -7 -12 2 -23 7 -9 8 -13 2 -9 -8 4 -17 -10 -26
-38 -9 -25 -11 -45 -6 -45 5 0 3 -7 -6 -15 -9 -9 -13 -26 -10 -41 3 -19 1 -25
-8 -21 -9 3 -13 -6 -12 -32 1 -20 -4 -39 -10 -43 -7 -5 -7 -8 3 -8 11 0 11 -3
1 -15 -6 -8 -9 -19 -5 -25 3 -5 0 -10 -7 -10 -9 0 -9 -3 2 -10 9 -6 11 -10 3
-10 -7 0 -10 -7 -7 -15 4 -8 2 -15 -3 -15 -5 0 -10 -7 -10 -15 0 -8 5 -11 10
-8 5 3 7 0 5 -8 -3 -8 -10 -13 -15 -12 -15 3 -10 -51 5 -63 12 -9 13 -13 2
-19 -9 -5 -11 -4 -6 3 4 7 3 12 -2 12 -14 0 -12 -312 2 -329 8 -11 8 -13 -1
-7 -7 4 -13 2 -13 -3 0 -6 6 -11 14 -11 15 0 16 -16 3 -37 -5 -7 -4 -13 1 -13
5 0 8 -16 7 -35 0 -19 3 -35 7 -35 4 0 3 -11 -2 -25 -8 -20 -6 -27 5 -31 9 -4
15 -11 14 -18 -5 -38 2 -67 14 -60 8 5 8 2 -2 -9 -8 -10 -9 -17 -3 -17 6 0 11
-10 11 -22 1 -52 3 -58 12 -53 5 4 9 -8 9 -25 0 -22 4 -29 13 -24 8 5 8 2 -2
-9 -9 -11 -10 -17 -2 -17 6 0 11 -7 11 -15 0 -8 6 -15 13 -15 9 0 9 -3 -1 -9
-12 -7 -12 -11 1 -22 7 -7 12 -22 9 -33 -4 -15 -2 -18 13 -12 15 5 16 4 5 -9
-9 -11 -9 -15 -1 -15 7 0 9 -4 6 -10 -3 -5 -1 -10 5 -10 6 0 9 -4 5 -9 -3 -5
1 -15 8 -23 14 -13 17 -21 17 -39 0 -5 6 -7 12 -3 10 6 10 5 2 -7 -9 -11 -9
-17 1 -26 7 -6 17 -9 21 -5 5 4 2 -1 -5 -10 -7 -10 -9 -18 -4 -18 15 0 55 -79
47 -92 -5 -7 -3 -8 5 -4 8 5 14 0 18 -13 3 -11 9 -18 14 -15 5 3 9 2 8 -3 -4
-22 2 -43 11 -38 6 3 10 1 10 -4 0 -18 4 -25 22 -46 9 -11 17 -24 17 -28 0 -4
14 -21 30 -36 17 -16 27 -31 24 -35 -3 -3 0 -6 7 -6 7 0 11 -3 8 -6 -4 -3 10
-21 30 -40 20 -19 33 -34 29 -34 -4 0 -2 -6 5 -14 7 -8 16 -12 21 -9 4 2 7 0
7 -5 0 -4 10 -19 23 -32 12 -14 21 -28 20 -32 -3 -7 12 -12 30 -9 4 0 7 -3 7
-9 0 -15 33 -50 48 -50 7 0 10 -4 7 -10 -3 -5 -2 -10 4 -10 6 0 22 -11 36 -26
14 -14 30 -22 35 -19 5 3 7 0 4 -9 -3 -8 3 -19 15 -26 12 -6 21 -8 21 -5 0 3
11 -4 25 -17 40 -38 55 -49 55 -42 0 4 9 -3 20 -16 11 -13 20 -19 20 -15 0 5
9 -1 20 -13 22 -23 36 -30 24 -11 -4 7 1 7 16 -1 12 -7 19 -18 16 -26 -3 -7
-2 -13 2 -13 22 4 42 -2 37 -10 -3 -6 3 -8 14 -6 11 2 22 -3 25 -11 3 -8 15
-14 26 -14 11 0 20 -5 20 -11 0 -6 6 -9 13 -6 6 2 17 -2 22 -10 6 -8 20 -15
33 -16 12 0 22 -5 22 -9 0 -4 6 -8 14 -8 7 0 19 -7 26 -15 7 -8 17 -12 22 -9
5 3 19 -2 30 -13 12 -10 18 -12 14 -5 -9 14 10 17 19 2 4 -6 11 -8 16 -5 5 4
12 -1 15 -9 3 -9 10 -13 15 -10 6 3 21 -2 36 -11 14 -9 22 -12 19 -6 -10 16 6
13 33 -6 18 -12 22 -13 16 -2 -7 12 -6 12 7 1 9 -7 28 -14 42 -16 13 -1 33 -9
42 -17 11 -9 15 -9 10 -2 -4 7 -3 13 3 13 5 0 12 -4 16 -9 3 -6 14 -8 25 -6
11 2 20 0 20 -5 0 -4 12 -7 28 -5 15 2 34 -4 44 -12 11 -9 18 -11 23 -4 3 6
11 11 16 11 6 0 8 -4 5 -9 -3 -5 3 -11 14 -14 12 -3 23 1 29 10 7 13 9 13 14
-1 5 -13 11 -14 25 -7 10 5 24 6 31 2 7 -5 83 -7 169 -5 167 3 201 6 222 19 9
6 11 4 5 -6 -8 -12 -6 -12 8 0 14 11 17 11 17 0 1 -10 4 -9 10 3 7 11 19 15
34 12 14 -2 28 1 32 7 4 8 9 7 15 -2 7 -11 9 -9 9 6 0 17 2 17 10 5 6 -9 13
-11 18 -5 7 10 16 12 79 17 17 1 30 5 27 9 -2 4 3 10 12 13 9 3 12 2 8 -5 -4
-7 0 -7 12 0 31 16 58 24 72 22 8 -1 23 6 35 16 12 11 17 12 12 4 -5 -8 6 -5
24 8 18 13 35 20 38 17 4 -3 17 1 30 9 13 9 28 13 32 10 5 -3 11 0 13 5 2 6
11 12 20 13 9 2 22 8 29 14 8 6 23 13 34 15 11 2 19 11 17 19 -2 8 0 11 4 7 4
-4 14 -2 22 5 13 10 14 9 7 -3 -6 -11 -4 -11 11 2 10 9 26 18 34 20 21 5 39
22 32 32 -3 5 0 6 6 2 13 -8 86 37 76 47 -3 3 5 3 18 0 18 -4 20 -3 8 6 -13 9
-13 11 1 11 9 0 22 7 29 15 7 9 15 13 17 11 6 -5 22 6 64 47 16 15 29 25 29
22 0 -3 11 6 25 20 14 14 30 25 36 25 6 0 7 4 4 10 -3 5 6 12 21 16 19 5 22 9
12 15 -7 5 -8 9 -2 9 16 0 114 97 107 104 -4 3 1 6 10 6 9 0 16 6 14 13 -1 6
4 11 11 10 6 -2 12 2 12 8 0 6 9 22 20 36 11 14 20 23 20 19 0 -4 6 -1 14 6 8
7 12 17 9 21 -3 4 5 16 16 26 12 10 21 23 21 30 0 6 7 11 15 11 9 0 12 6 9 15
-4 8 1 17 10 21 9 3 16 15 16 26 0 10 4 17 9 14 7 -5 33 37 35 57 1 4 6 11 11
15 17 12 55 93 49 103 -3 5 0 8 8 7 7 -2 12 3 11 10 -2 6 2 12 8 12 5 0 8 4 5
9 -3 5 1 14 8 21 8 6 13 21 11 32 -3 11 -2 18 2 15 10 -11 50 82 45 106 -1 4
3 7 9 7 6 0 9 7 5 15 -3 8 -1 15 5 15 6 0 7 5 4 10 -3 6 -1 10 5 10 6 0 9 4 5
9 -3 5 -1 12 5 16 5 3 10 12 10 18 0 7 -4 6 -11 -3 -9 -12 -10 -12 -5 3 3 10
6 21 6 23 0 3 5 2 11 -2 8 -5 10 1 7 20 -3 14 -1 26 4 26 5 0 6 5 3 10 -3 5
-1 10 5 10 6 0 8 5 5 10 -3 6 -3 16 2 23 7 11 12 43 14 90 0 9 3 16 7 13 4 -2
8 16 9 41 1 26 7 50 15 54 11 7 11 9 -1 9 -10 0 -11 3 -2 13 8 10 7 17 -2 27
-10 10 -9 11 2 5 11 -6 13 -3 9 13 -4 13 -1 22 5 22 7 0 5 5 -3 10 -9 6 -10
10 -3 10 15 0 14 60 -1 60 -8 0 -8 3 -1 8 15 10 17 183 2 201 -9 12 -9 13 1 7
9 -6 11 -1 8 18 -3 14 -7 30 -11 36 -3 5 -1 10 6 10 8 0 7 5 -2 17 -12 15 -12
16 1 8 12 -6 12 -5 3 5 -6 7 -9 19 -6 28 4 10 2 13 -5 8 -16 -9 -15 7 0 22 9
9 9 12 0 12 -7 0 -12 14 -12 33 0 18 -6 39 -12 46 -10 11 -10 13 0 7 15 -9 16
6 1 21 -10 10 -16 40 -21 111 -1 12 -5 22 -9 22 -4 0 -10 7 -13 16 -4 10 -2
13 7 8 9 -6 9 -5 0 7 -6 8 -14 31 -18 52 -4 20 -11 37 -16 37 -4 0 -6 9 -4 20
2 11 -1 20 -6 20 -6 0 -7 5 -4 10 3 6 2 10 -4 10 -6 0 -7 7 -4 17 5 11 3 14
-6 8 -9 -5 -12 -2 -9 11 2 11 -3 25 -12 32 -9 8 -9 11 -1 7 9 -6 9 -1 -3 17
-9 14 -13 28 -9 31 3 4 1 7 -5 7 -7 0 -12 9 -12 20 0 11 -4 20 -9 20 -5 0 -12
11 -15 25 -4 14 -11 25 -16 25 -5 0 -7 7 -4 15 4 8 -1 17 -9 21 -9 3 -13 12
-10 21 4 11 2 14 -5 9 -11 -6 -17 12 -13 37 1 5 -3 6 -9 2 -5 -3 -10 -2 -10 3
0 6 -15 33 -34 61 -19 28 -33 51 -30 51 3 0 -1 6 -8 14 -7 8 -17 11 -22 8 -5
-3 -6 2 -3 12 4 10 1 19 -8 22 -8 4 -15 10 -15 16 0 14 -27 38 -34 31 -3 -4
-6 2 -6 11 0 10 -13 31 -30 46 -16 15 -30 31 -30 35 0 12 -27 34 -34 28 -3 -4
-6 1 -6 10 0 8 -9 19 -20 22 -11 3 -20 11 -20 17 0 13 -67 78 -74 70 -3 -3 -6
2 -6 11 0 15 -11 22 -32 18 -5 0 -8 5 -8 13 0 8 -9 18 -20 21 -11 3 -20 13
-20 21 0 8 -4 12 -10 9 -5 -3 -10 -1 -10 5 0 6 -4 8 -10 5 -5 -3 -10 1 -10 10
0 9 -4 14 -9 11 -5 -3 -12 1 -15 10 -3 8 -10 13 -14 10 -5 -3 -14 4 -22 14 -8
10 -17 17 -22 14 -5 -3 -17 5 -28 18 -11 13 -19 19 -20 15 0 -5 -7 -1 -16 7
-8 9 -21 13 -27 9 -7 -3 -9 -2 -4 2 9 10 -41 45 -65 45 -10 0 -18 5 -18 11 0
6 -7 9 -15 5 -9 -3 -19 3 -25 14 -6 11 -20 20 -31 20 -11 0 -22 6 -25 14 -3 8
-13 12 -26 8 -14 -3 -19 -1 -14 6 5 8 0 12 -13 12 -12 0 -21 4 -21 8 0 4 -10
8 -21 9 -12 1 -31 10 -42 20 -11 10 -17 12 -13 6 10 -18 -9 -16 -28 2 -8 8
-21 12 -29 9 -8 -3 -17 2 -20 10 -4 9 -13 13 -21 10 -8 -3 -17 0 -21 6 -6 9
-10 9 -16 -1 -7 -12 -9 -12 -9 0 0 11 -3 11 -15 1 -13 -11 -14 -10 -9 5 6 15
3 17 -14 13 -13 -4 -23 0 -26 9 -5 12 -9 13 -21 3 -10 -8 -15 -9 -15 -2 0 6
-6 9 -14 6 -8 -3 -17 0 -21 5 -3 6 -11 9 -16 5 -5 -3 -16 -1 -24 6 -9 8 -15 8
-20 0 -3 -6 -11 -8 -16 -4 -5 3 -7 8 -5 12 2 4 -17 7 -42 6 -33 -1 -50 4 -59
15 -6 9 -15 13 -19 8 -4 -4 -2 -7 4 -7 7 0 12 -4 12 -8 0 -4 -9 -8 -19 -8 -11
0 -17 4 -15 8 3 4 2 8 -3 9 -4 0 -19 2 -33 5 -19 3 -21 2 -10 -6 12 -7 10 -9
-7 -7 -12 0 -20 4 -18 7 2 4 -61 7 -141 8 -102 0 -142 -3 -138 -10 5 -7 2 -8
-6 -3 -23 14 -59 14 -71 -1z m41 -4 c-18 -12 -30 -13 -30 -2 0 4 10 9 22 9 18
2 20 0 8 -7z"/>
</g>
</svg>
